<svg width="251" height="51" viewBox="0 0 251 51" fill="none" xmlns="http://www.w3.org/2000/svg">
<mask id="mask0" style="mask-type:alpha" maskUnits="userSpaceOnUse" x="0" y="0" width="80" height="51">
<path d="M55.0909 40.4818L55.1259 39.8425L55.0471 39.7374L54.8982 39.6761L54.6792 39.4308L54.723 39.1768L58.9972 38.7301L58.9359 38.5375L58.8045 38.4061L58.7607 38.2835L58.8133 37.7317L58.603 37.2324L58.6468 37.0047L58.6731 36.6807L58.8658 36.3478L58.8483 36.2515L58.6994 36.1639V35.8836L58.5417 35.7172L58.2877 35.183L57.1579 31.1716L53.1553 31.5219L53.2691 31.6971L53.1553 37.5653L53.5406 40.4731L53.6195 40.4293L53.7333 40.438L53.7859 40.4731L53.856 40.4643L54.0311 40.1315V39.9301L54.1275 39.8337L54.2501 39.8775L54.5479 40.438V40.5169L54.2588 40.7096L54.5654 40.6745L54.9946 40.5344L55.0909 40.4818Z" fill="#D0D0D0"/>
<path d="M11.0005 33.4923L11.2633 33.2996L11.3333 33.0894L11.2458 32.9493L11.0881 32.9318L10.9918 32.7916L11.0881 32.1873L11.2282 32.161L11.4384 31.8808L11.5786 31.2677L11.7888 30.9524L12.2092 30.8035L12.323 30.6896L12.288 30.5232L12.0866 30.3042L11.9815 29.7962L11.8588 29.6386L11.745 29.3408L11.8238 29.1569L11.9464 28.8941L11.9902 28.6401L11.9464 28.2109L12.034 27.0198L12.3406 26.9672L12.6646 27.0899L12.7697 27.3263H12.9449L13.1551 27.0723L13.4529 25.5396L17.4993 26.2578L21.0027 26.7833L19.4787 37.6526L16.2118 37.1796L10.5889 33.8952L10.6327 33.6412L10.8078 33.4836L11.0005 33.4923Z" fill="#D0D0D0"/>
<path d="M49.9405 31.6882L50.0193 31.4955L50.1244 31.5393L50.1857 31.4517L50.1156 31.3904L50.1419 31.259L50.0456 31.1802L50.0981 31.0926L50.0894 30.9613L49.993 30.9525L50.0631 30.8824L50.177 30.9525L50.2032 30.8299L50.1682 30.7335L50.177 30.6722L50.3521 30.7248L50.3171 30.5934L50.4572 30.4795L50.4134 30.4007L50.3171 30.4095L50.2645 30.3306L50.3434 30.2518L50.4835 30.2343L50.5273 30.1642L50.6499 30.1467L50.6412 30.0767L50.5623 29.9978V29.954H50.6937L50.7287 29.8927L50.6061 29.8051L50.5974 29.7526L49.6164 29.8227L49.8616 29.376L50.0105 29.2446V29.0519L49.8704 28.8329L46.3845 29.0081L42.96 29.0694L43.3191 31.2065L43.2577 34.6223L43.4855 34.8237L43.7307 34.7099L44.011 34.78L44.0285 35.8222L48.6092 35.7084L48.7143 35.577L48.7581 35.3142L48.6267 35.1128L48.5829 34.9201L48.6617 34.8588V34.7887L48.5128 34.6924L48.5041 34.6311L48.6442 34.5522L48.5391 34.4559L48.688 33.834L48.9858 33.6939V33.6238L48.8895 33.5012L49.1434 33.0283H49.3099L49.4412 32.9232L49.415 32.4677L49.6865 32.0736L49.8441 32.021L49.8003 31.7495L49.9405 31.6882Z" fill="#D0D0D0"/>
<path d="M4.8522 31.5655L5.14999 32.021L5.02737 32.0297L4.86972 31.8633L4.8522 31.5655ZM5.01861 30.7072L5.17626 31.0663L5.40398 31.1539L5.46529 31.1013L5.35143 30.8823L5.12371 30.6721L5.01861 30.7072ZM3.27567 29.0431V29.2533L3.45084 29.3584L3.83622 29.3409L3.9238 29.2533L3.65229 29.2358L3.27567 29.0431ZM2.75892 29.0518L3.04795 29.0956L3.17057 29.2883H2.83775L2.75892 29.0518ZM6.95424 33.0369L6.86665 32.7742L6.88417 32.5114L6.84913 31.8195L6.69148 31.3991L6.58638 31.2765L6.53383 31.1451L5.92074 30.3919L5.60543 30.4006L5.43026 30.2342L5.5266 30.0766L5.46529 29.7525L5.27261 29.6474L4.93103 29.5949L4.68579 29.481L4.55441 29.3146L4.16028 28.7365L3.9238 28.5438L3.59974 28.5L3.32822 28.2986L2.91658 28.1672L2.67134 28.1409L2.45238 27.922L2.46989 27.6767L2.53996 27.2563L2.69761 26.8097L2.57499 26.6695L2.22466 25.8462L1.98818 25.5222L1.95314 25.2594L1.81301 25.058L1.83052 24.839L1.65535 24.4011L1.40136 24.1646L1.45391 23.5427L1.66411 23.4727L1.82176 23.2012L1.78673 22.9209L1.69915 22.8421H1.48018L1.26122 22.553L1.12984 22.2465V21.5896L1.23495 21.2217L1.25246 21.0378L1.47143 21.0553L1.46267 21.1955L1.3926 21.2568V21.4757L1.71666 21.756V21.3444L1.59404 21.0466L1.63784 20.9502L1.55025 20.8013L1.79549 20.67L1.62908 20.4072L1.50646 20.451L1.37508 20.7838L1.41887 20.8977L1.34881 20.9853L1.26998 20.9765L0.797022 20.4422L0.858331 19.9518L0.761988 19.6102L0.192687 18.4891L0.262755 17.5519L0.4642 17.2366L0.481717 16.6761L0 15.7039L0.0262755 15.2485L0.630611 14.5916L0.779505 14.3814L0.770747 14.2587L1.12109 13.453L1.12984 12.7173L1.20867 12.4983L6.99803 14.1274L5.56164 19.654L5.65798 19.9605L11.824 29.1569L11.7451 29.3409L11.859 29.6386L11.9816 29.7963L12.0867 30.3043L12.2882 30.5233L12.3232 30.6897L12.2093 30.8035L11.7889 30.9524L11.5787 31.2677L11.4386 31.8808L11.2284 32.1611L11.0882 32.1874L10.9919 32.7917L11.0882 32.9318L11.2459 32.9494L11.3335 33.0895L11.2634 33.2997L11.0007 33.4924L10.808 33.4836L6.95424 33.0369Z" fill="#D0D0D0"/>
<path d="M31.5832 27.8606L30.138 27.773L25.6099 27.3526L21.0029 26.7833L22.0102 19.0496L25.9427 19.5488L29.2271 19.8466L32.1262 20.0568L32.0036 21.9924L31.5832 27.8606Z" fill="#D0D0D0"/>
<path d="M75.279 15.2134L75.314 15.1171L75.0338 14.0398L75.025 14.0135L73.72 14.3113V14.3726L73.6412 14.3989L73.5974 14.3376L72.6777 14.5478L72.923 15.9754L73.0806 16.1068L72.7741 16.4046L72.923 16.5972L73.3959 16.2031L73.5448 16.0892H73.6149L73.8251 15.8177L73.9477 15.8265L74.2017 15.7302H74.3856L74.8498 15.4937L75.0951 15.4148L75.1827 15.3273L75.314 15.3711L75.279 15.2134Z" fill="#D0D0D0"/>
<path d="M70.7868 19.3911L70.6466 19.4174L70.5153 19.5137L70.4102 19.6977L71.0758 22.0712L72.0305 21.8698L71.8378 21.2041L71.7414 21.2479L71.4524 21.0202L71.4086 20.8713L71.251 20.7837L71.2335 20.4596L71.0495 20.267L70.9532 20.1969L70.8481 20.1005L70.813 19.8203L70.8393 19.6363L70.9269 19.4437L70.7868 19.3911Z" fill="#D0D0D0"/>
<path d="M64.6108 38.5286L64.2605 38.4673L64.1116 38.3884L63.9189 38.511V38.73L64.0415 38.9139L63.9977 39.2906L63.8138 39.3431L63.7262 39.2468L63.6737 38.9665L59.2857 39.2555L58.9966 38.73L54.7225 39.1767L54.6787 39.4307L54.8977 39.6759L55.0466 39.7372L55.1254 39.8423L55.0904 40.4817L54.994 40.5343L55.0378 40.5693L55.1254 40.543L55.1867 40.4729L56.1063 40.2365L56.9121 40.1927L57.6216 40.3591L58.366 40.797L58.5762 40.8671L58.7689 41.0422L58.7602 41.2787H58.9704L59.1368 41.1911L59.3557 41.1999L59.5309 41.1298L59.7849 40.9547L60.0564 40.7007L60.1528 40.6656L60.2053 40.7094H60.3279L60.3717 40.6394L60.3279 40.5343L60.2754 40.4817L60.2929 40.4116L60.4681 40.3153L60.906 40.2803L60.9761 40.3678L61.0636 40.3766L61.2651 40.4642L61.5278 40.6218L61.6329 40.7707L61.7293 40.8758L61.9745 40.9985V41.2087L62.2198 41.3751L62.3074 41.3838L62.4475 41.5064L62.5088 41.6466L62.5964 41.6641L62.6664 41.848L62.7278 41.9006L62.8153 41.8042L63.0693 41.813L63.1131 41.9356L63.2095 42.0144V42.1283L63.4635 42.321L63.481 43.1618L63.3233 43.6698L63.4109 43.7749L63.3934 44.0727L63.3233 44.1953L63.3846 44.3004L63.5861 44.5018L63.6124 44.6332L63.6824 44.7208L63.6474 44.5544L63.7613 44.5018L63.8313 44.1865L63.5686 44.0814L63.5773 44.0289L63.8051 43.9939L63.8839 44.2216L63.9802 44.2741L63.989 44.099L64.0853 44.1252L64.1379 44.1953L64.1291 44.2566L63.8751 44.6245L63.8576 44.7208L63.7087 44.8872V44.9836L64.0328 45.3164L64.497 46.0083L64.6546 46.1922V46.3499L64.8999 46.7528L65.1013 46.8053L65.1626 46.7002L64.9787 46.7265L64.7159 46.3324L64.7334 46.2098L64.8648 46.1397V46.0083L64.8123 45.8944L64.8911 45.8156L64.9261 45.8944L64.9874 45.9382V46.2886L64.8823 46.236L64.8123 46.3149L64.9349 46.455L65.0225 46.6827L65.1276 46.6302L65.329 46.7353L65.513 46.9279L65.6531 47.3746L65.9246 47.795L65.9947 47.6812L66.2399 47.6374L66.5202 47.7512L66.5465 47.9001L66.8355 48.233L66.8442 48.3293L67.0369 48.5658L66.9756 48.6096V48.8461L67.2121 48.9687H67.3435L67.58 48.811L67.7113 48.8373L67.8077 48.8723L68.0091 48.7234L68.0266 48.6621L68.1317 48.6884L68.3419 48.5395L68.4558 48.3381L68.3945 48.0578L68.377 47.9439L68.4733 47.5936L68.5259 47.5761L68.5784 47.7162L68.6485 47.5586L68.5784 46.9279L68.5434 46.0083L68.4558 45.4127L68.3945 45.2638L67.8164 44.2916L67.361 43.4946L67.1683 43.2056L67.0544 42.8903L67.0369 42.5925L67.1158 42.5662V42.4874L67.0194 42.2947L66.6691 41.9444L66.0034 41.0948L65.5042 40.1839L65.1276 39.2468L65.075 38.9227L64.9699 38.8351L64.9261 38.5023L64.6108 38.5286ZM65.4166 50.3087L65.5655 50.3L65.5042 50.2124L65.4166 50.3087ZM66.056 50.2124V50.1511L66.1961 50.1336L66.5202 49.8445L66.6516 49.792L66.8618 49.7131L66.888 49.827L67.0369 49.8971L66.8092 50.0022H66.599L66.2574 50.2211L66.056 50.2124ZM67.5624 49.5467L67.2997 49.6694L67.2121 49.7832L67.3084 49.792L67.5624 49.5467ZM67.8953 49.2927L67.7989 49.319L67.6763 49.4942L67.7726 49.4767L67.904 49.3365L67.8953 49.2927ZM68.6222 47.9177L68.4733 48.4081L68.4033 48.4957L68.3157 48.7234L68.2106 48.8636L68.1493 49.0125L67.9829 49.2052V49.284L68.2193 49.0387L68.4295 48.7322L68.4821 48.557L68.666 48.1279L68.6222 47.9177Z" fill="#D0D0D0"/>
<path d="M65.4963 35.8135V35.9361L65.1284 36.4792L65.0233 36.4967L65.1547 36.5405V36.7157L65.0759 36.812L65.0233 37.3375L64.8219 37.8805L64.8657 38.0557L64.927 38.5024L64.6117 38.5287L64.2613 38.4674L64.1124 38.3885L63.9198 38.5111V38.7301L64.0424 38.914L63.9986 39.2906L63.8147 39.3432L63.7271 39.2469L63.6745 38.9666L59.2865 39.2556L58.9975 38.7301L58.9362 38.5374L58.8048 38.406L58.761 38.2834L58.8136 37.7316L58.6034 37.2324L58.6471 37.0047L58.6734 36.6806L58.8661 36.3478L58.8486 36.2515L58.6997 36.1639V35.8836L58.542 35.7172L58.288 35.1829L57.1582 31.1715L59.1639 30.9175L61.0382 30.6548L61.0295 30.8212L60.863 30.9088L60.7404 31.1891L60.7579 31.3029L61.2922 31.6357L61.5199 31.6095L61.7914 31.9598L61.8265 32.1087L62.1943 32.5554L62.4221 32.7043L62.5447 32.7218L62.7374 32.8619L62.8337 33.0546L63.0089 33.1947L63.1665 33.2385L63.403 33.475L63.4118 33.5976L63.6395 33.8429L64.0774 34.0443L64.3927 34.6311L64.419 34.8676L64.7606 35.0515L64.9795 35.472L65.0496 35.7435L65.4175 35.7785L65.4963 35.8135Z" fill="#D0D0D0"/>
<path d="M13.2513 15.5813L11.1143 15.1084L11.8587 11.8415L12.1127 11.3335L12.1478 11.1495L12.2178 11.0707L12.139 10.8955L11.885 10.7904L11.9025 10.4226L12.2529 9.91459L12.4718 9.84452L12.612 9.64307L12.6032 9.50294L12.7609 9.3628L13.0411 8.88109L13.409 8.46068L13.3652 8.18041L13.0586 7.90889L12.9185 7.59359L13.0148 7.21697L12.9535 6.86663L14.0659 1.95312L15.3096 2.21588L14.8892 4.14275L15.2132 4.79087L15.0731 5.21128L15.3884 5.63169L15.5548 5.693L15.8964 6.41995V6.60388L16.0978 6.86663H16.1767L16.2993 7.05056H16.5796V7.1907L15.9577 8.67964L15.9139 9.03874L16.0365 9.08253L16.1767 9.31025L16.4219 9.18763L16.7372 8.97743L16.9036 9.14384L16.9474 9.3628L16.9036 9.64307L17.1226 10.4926L17.3503 10.7992L17.5517 10.9218L17.5868 11.1846V11.5437L17.7882 11.7451L17.9284 11.5437L18.5327 11.6838L18.7166 11.5787L19.5049 11.7276L19.7501 11.4386L19.9078 11.386L20.0129 11.5437L20.153 11.9028L20.2318 11.9115L19.4874 16.7112L15.2921 15.993L13.2513 15.5813Z" fill="#D0D0D0"/>
<path d="M53.3835 22.8334L53.2959 23.2889V23.464L53.5061 23.7706V23.8319L53.4798 23.9107L53.5586 24.0771L53.5324 24.2873L53.3922 24.445L53.2784 24.8128L52.9455 25.277L52.9368 25.8901H52.8492L52.928 26.0565V26.1354L52.7353 26.3719L52.7441 26.4682L52.8755 26.6609L52.8667 26.7397L52.5427 26.7923L52.4901 26.8974L52.385 26.8448L52.2974 26.8886L52.2624 27.1776L52.4113 27.3353L52.3762 27.5455L52.2449 27.5718L51.6405 27.309L51.2902 27.6331L51.3165 27.7907H51.0712L50.9486 27.6594L50.791 27.3265V27.1601L50.861 27.1076L50.8698 26.9937L50.7209 26.8273L50.6421 26.6083L50.4056 26.2492L49.9852 26.1354L49.3371 25.5135L49.302 25.3033L49.5473 24.6377L49.5122 24.4713L49.6173 24.3749V24.2611L49.3721 24.1297L49.1093 24.0684L48.8115 24.1735L48.6977 23.972L48.7502 23.8056L48.6889 23.5954L47.9357 22.8597L47.743 22.7283L47.524 22.2116L47.4189 21.7386L47.5416 21.4146L47.6029 21.3532L47.6116 21.1518L47.5503 21.073L47.6379 20.9416L47.7956 20.889L47.8744 20.8628L47.962 20.7577V20.5475L48.1109 20.3373L48.1547 20.2935L48.1634 19.9869L48.0846 19.8643L47.997 19.838L47.9007 19.6979L47.9882 19.3475L48.251 19.2775H48.4612L48.8291 19.1198L48.978 18.9271L48.9867 18.7169L49.0831 18.6031L49.1969 18.3228L49.1882 18.0951L48.9429 17.7885H48.8378L48.759 17.6922L48.7765 17.5521L48.6276 17.4032L48.4087 17.2893L48.4524 17.2368L52.4726 16.9915L52.4813 17.3944L52.7791 17.7973L52.8842 18.1564L53.0244 18.4367L53.3835 22.8334Z" fill="#D0D0D0"/>
<path d="M53.8821 18.3577L53.4354 18.5592L53.0238 18.4365L53.3829 22.8333L53.2953 23.2888V23.4639L53.5055 23.7705V23.8318L53.4792 23.9106L53.5581 24.077L53.5318 24.2872L53.3917 24.4449L53.2778 24.8127L52.945 25.2769L52.9362 25.89H52.8486L52.9275 26.0564L53.0238 26.1265L53.0764 26.0389L53.015 25.89L53.4179 25.8462L53.4354 25.9513L53.5318 25.9688L53.5668 25.89L53.5143 25.7762L53.5405 25.7061L53.6544 25.7762L53.8033 25.7411L53.9522 25.7937L54.25 25.9776L54.4076 25.7324L54.7142 25.5397L54.9769 25.8287L55.1171 25.6448L55.1434 25.4083L55.4762 25.2069L55.4937 25.3207L55.6601 25.4258L55.9229 25.4083L56.028 25.347L56.0367 25.0492L56.2557 24.7251L56.6586 24.3398L56.6498 24.1909L56.7549 23.8581L56.9476 23.9456L57.5344 23.5515L57.4994 23.4026L57.368 23.2187L57.4556 23.0523L56.8775 18.0424L56.8688 17.9198L54.031 18.2176L53.8821 18.3577Z" fill="#D0D0D0"/>
<path d="M47.55 15.5727L47.7339 15.7128L47.7864 15.8092L47.6463 16.0982L47.6376 16.3172L47.8127 16.7989L48.0492 16.9303L48.3382 16.9916L48.4521 17.2368L48.4083 17.2894L48.6273 17.4032L48.7762 17.5521L48.7586 17.6922L48.8375 17.7886H48.9426L49.1878 18.0951L49.1966 18.3229L49.0827 18.6031L48.9864 18.717L48.9776 18.9272L48.8287 19.1199L48.4608 19.2775H48.2506L47.9879 19.3476L47.9003 19.6979L47.9966 19.8381L48.0842 19.8643L48.1631 19.987L48.1543 20.2935L48.1105 20.3373L47.9616 20.5475V20.7577L47.874 20.8628L47.7952 20.8891L47.6376 20.9416L47.55 21.073L47.6113 21.1518L47.6025 21.3533L47.5412 21.4146L47.4098 21.3445L47.3135 21.2482L47.2609 21.1081L47.112 20.9942L45.8596 21.0643L43.4773 21.1694L41.2088 21.1606L41.0512 20.7752L41.1125 20.5825L41.0424 20.2935L41.0599 20.0395L40.9461 19.9782L40.911 19.4439L40.6658 19.006L40.6483 18.682L40.4556 18.3053L40.3417 17.9813V17.8587L40.2892 17.7098V17.5083L40.2454 17.4295L40.1841 17.2806L40.1578 17.1667L40.0439 17.0616L40.1315 16.685L40.2804 16.2383L40.2191 16.0632L40.1053 16.0281L40.0702 15.888L40.1578 15.8442L40.1666 15.7479L40.0527 15.6165L40.0615 15.4763L40.2541 15.4851H42.724L45.9034 15.4063L47.5324 15.345L47.55 15.5727Z" fill="#D0D0D0"/>
<path d="M38.9839 22.2729L35.1565 22.1678L32.0034 21.9926L31.583 27.8608L37.5125 28.1148L42.9428 28.1236L42.899 23.9107L42.6187 23.8494L42.391 23.4378L42.172 23.2188L42.2158 23.0174L42.4523 22.7896L42.461 22.6845L42.3297 22.5006L42.2508 22.5882L42.0757 22.5356L41.8217 22.2729H38.9839Z" fill="#D0D0D0"/>
<path d="M59.3917 27.7906L57.5962 27.9132L57.1408 27.9833L55.6168 28.0709L55.3891 28.1409L53.4096 28.3161L53.3483 28.2635H53.0243L53.1294 28.5438L53.0768 28.6226L51.0361 28.754L51.1237 28.5175L51.2463 28.5964L51.3076 28.5613L51.4127 28.2022L51.3251 28.1147L51.4127 27.9395L51.4302 27.8607L51.3164 27.7906L51.2901 27.6329L51.6404 27.3089L52.2448 27.5716L52.3761 27.5453L52.4112 27.3351L52.2623 27.1775L52.2973 26.8885L52.3849 26.8447L52.49 26.8972L52.5426 26.7921L52.8666 26.7396L52.8754 26.6607L52.744 26.4681L52.7352 26.3717L52.9279 26.1352V26.0564L53.0243 26.1265L53.0768 26.0389L53.0155 25.89L53.4184 25.8462L53.4359 25.9513L53.5323 25.9688L53.5673 25.89L53.5147 25.7761L53.541 25.7061L53.6549 25.7761L53.8038 25.7411L53.9527 25.7937L54.2505 25.9776L54.4081 25.7323L54.7147 25.5397L54.9774 25.8287L55.1176 25.6448L55.1438 25.4083L55.4767 25.2068L55.4942 25.3207L55.6606 25.4258L55.9233 25.4083L56.0284 25.347L56.0372 25.0492L56.2562 24.7251L56.659 24.3397L56.6503 24.1908L56.7554 23.858L56.9481 23.9456L57.5349 23.5515L57.4999 23.4026L57.3685 23.2187L57.4561 23.0522L57.5699 23.096L57.7626 23.1048L57.929 23.0347L58.183 23.1398L58.3757 23.4376V23.5252L58.7348 23.5865L58.9363 23.569L59.1027 23.7529L59.2953 23.7704V23.6829L59.4618 23.6128L59.7245 23.6829L59.8296 23.7529L59.9435 23.6916H60.0223L60.0749 23.5427L60.3726 23.3851L60.4164 23.4551L60.4865 23.7091L60.793 23.8317L60.8982 24.0157L60.8894 24.112L60.9419 24.1996L60.8894 24.5149L61.0558 24.655L61.1259 24.7514L61.2135 24.8039L61.2047 24.8828L61.5901 25.3732H61.7127L61.8441 25.5309L61.9492 25.5572L62.0718 25.5484L61.6426 26.1265L61.3886 26.2141L61.1259 26.4768L61.0908 26.6695L60.9069 26.7834L60.8982 26.9323L60.7755 27.0549L60.6179 27.0987L60.5741 27.2651L60.4865 27.3001L59.8822 27.668L59.3917 27.7906ZM50.8084 28.7803L50.7471 28.719L50.7646 28.6314H50.8609L50.9222 28.6927L50.896 28.7803H50.8084Z" fill="#D0D0D0"/>
<path d="M51.5441 40.9548L51.439 40.7972L51.4652 40.6833L51.0448 40.0877L51.1237 39.6848L51.2113 39.5622L51.22 39.4396L48.067 39.6148L48.2159 38.5725L48.4261 38.1521L48.9516 37.4164L48.7939 37.1974H48.9691V36.9084L48.7589 36.6894L48.8027 36.5406L48.6976 36.453L48.5574 35.8311L48.61 35.7085L44.0293 35.8224L44.0731 37.5653L44.1344 37.8631L44.3621 38.1083L44.4234 38.5813L44.7563 38.9842L44.8263 39.3608H44.9139L44.9051 40.0002L44.6161 40.5607L44.73 40.7621L44.6161 40.8935L44.6774 41.1563L44.6687 41.5329L44.476 41.8394L44.4672 41.9095L44.3183 42.0146L44.4059 42.1723L44.511 42.2686L44.6511 42.1547L45.1153 42.0759L45.6496 42.0672L46.4904 42.4L47.1911 42.4876L47.3225 42.3649L47.4801 42.3474L47.9005 42.5401L48.0407 42.5051L48.137 42.3737L47.7692 42.2161L47.5765 42.3036L47.4801 42.2861L47.3575 42.1109L47.6465 41.9183L47.7867 41.9095V42.0584L47.9181 42.0496L48.2159 42.0234L48.2509 42.2248L48.3472 42.2598L48.3998 42.4263L48.8202 42.5138L48.9691 42.654V42.7153H48.864L48.7326 42.8642L48.8815 42.9693L49.3545 43.0569L49.5909 43.3021L49.9763 43.2145L49.6522 43.232L49.6435 43.1795L49.8887 43.1182L49.9062 42.9605L50.0113 42.9342V42.8116L50.1077 42.8204V42.9605L50.3266 42.9693L50.3967 42.8029L50.4755 42.8291L50.4931 43.0481L50.5982 43.0656L50.4405 43.2408L50.6682 43.162L50.8434 43.0656L51.0974 42.7766H51.0361L50.9222 42.8817L50.8872 42.8729L50.8434 42.8029L50.9222 42.6978V42.4963L51.0186 42.4263L51.0799 42.4876L51.1675 42.4175L51.255 42.4087L51.3076 42.5226L51.255 42.689H51.4652L51.9119 42.8379L51.9557 42.9518L52.0959 43.0744L52.3411 43.0831L52.455 43.1444L52.6126 43.0569L52.6914 42.908V42.7591H52.5688L52.4637 42.6365L52.3674 42.5401L52.0871 42.4613L51.8594 42.4788L51.4915 42.2686V42.0672L51.6054 41.9796L51.8156 42.0321L51.5441 41.892L51.5616 41.8219H51.8769L52.1046 41.5154L51.8769 41.3577L51.947 41.2263L51.8419 41.1563H51.7718L51.5966 41.3402V41.5241L51.5441 41.5854L51.4477 41.5767L51.3076 41.4541H51.1937V41.3227L51.2463 41.2614L51.3164 41.3227L51.4652 41.1825L51.5266 41.0424L51.5966 41.0161L51.5441 40.9548ZM50.642 40.7184L50.8084 40.8059L50.8784 40.9023L51.0974 40.911L51.2288 40.9811L51.2463 41.1037L51.2113 41.1563L51.1324 41.0249L51.0098 41.13L50.931 41.2526L50.6857 41.3227L50.5456 41.3314L50.2215 41.2439L50.2303 41.095L50.4055 40.9198L50.5018 40.7096L50.642 40.7184ZM50.2303 40.8235V40.9198L50.0727 41.095H49.9675V40.9023L50.1077 40.7709L50.2303 40.8235Z" fill="#D0D0D0"/>
<path d="M75.4104 10.8168L75.463 11.1672L75.7432 11.3423L75.8133 11.535L76.0148 11.6577L76.1374 11.6314L76.225 11.3686L76.1549 11.1146L76.295 11.0358L76.3388 10.7906L76.2863 10.6767L76.5753 10.5103L76.3826 10.3088L76.4614 10.0986L76.5841 9.90596L76.6279 10.1862L76.768 10.0111L76.8818 10.0899L76.987 10.0198V9.87092L77.2672 9.75706L77.2935 9.50307L77.5125 9.48555L77.7489 9.16149V9.10018L77.6701 9.05638L77.6614 8.76735L77.7139 8.67101L77.7314 8.81115L77.819 8.76735L77.8015 8.48708L77.7227 8.51336L77.7139 8.61846L77.6088 8.49584L77.6876 8.37322L77.7402 8.38198L77.8365 8.34695L77.8803 8.59218L78.0555 8.56591L78.3095 8.62722V8.53963L78.2131 8.43453L78.327 8.44329L78.3358 8.24184L78.3883 8.31191L78.4146 8.47832L78.5985 8.6097L78.616 8.52212L78.6949 8.5046L78.6686 8.43453L78.7386 8.38198L78.7299 8.24184L78.5898 8.22433L78.4146 8.28564L78.5372 8.1455L78.5985 8.07543L78.7124 8.05792L78.7474 8.17178L78.8963 8.31191L78.9313 8.12798L79.1328 8.02288L79.054 7.90902L79.0627 7.76013L79.1591 7.80392H79.2204L79.3693 7.6813L79.4043 7.47986L79.597 7.50613L79.6057 7.44482L79.6233 7.30469L79.667 7.42731L79.7984 7.33972L79.9999 6.98062L79.9911 6.78794L79.8685 6.61277L79.6057 6.33249H79.4393L79.3693 6.52518L79.1153 6.26243L79.1415 6.19236V6.06098L79.0014 5.66685L78.9313 5.64933L78.87 5.68437H78.4496L78.4233 5.36906L77.7139 3.09186L77.0745 2.76779L76.8205 2.75903L76.2337 3.33709L75.9972 3.24951L75.9097 2.90793H75.6732L75.0688 4.61583L75.1302 5.15886L74.9813 5.36906L74.9462 5.77195L75.0601 6.09602L75.1302 6.11353V6.25367L74.99 6.6478L74.8586 6.77042L74.7448 6.96311L74.7097 7.64627L74.4995 7.55868L74.3682 7.59372L75.4104 10.8168ZM78.4409 8.65349L78.3533 8.72356V8.83742L78.4146 8.76735L78.4934 8.83742L78.5284 8.79363L78.6248 8.81115L78.5372 8.74108L78.5722 8.67101L78.4409 8.65349ZM78.292 8.88121L78.2044 8.97756L78.2482 9.01259L78.2394 9.10018H78.3358V8.94252L78.292 8.88121ZM78.0292 8.74108L78.108 8.85494L78.1956 8.89873L78.2219 8.81115V8.65349L78.108 8.59218L78.073 8.69729L78.0292 8.74108ZM77.9416 9.179L77.7927 9.03011L77.9329 8.8199L78.0029 8.84618L78.0205 8.94252L78.108 9.01259V9.10893L78.0205 9.19652L77.9416 9.179Z" fill="#D0D0D0"/>
<path d="M70.8472 23.131V22.9821H70.7771V23.1398L70.8472 23.131ZM71.8807 22.7894L71.9858 22.5968L71.9945 22.3778L71.942 22.3252L71.8807 22.4041L71.8631 22.588L71.7931 22.7106L71.7668 22.807L71.3639 22.9471L71.3026 23.0172L71.1887 23.0347L71.1537 23.1135L71.0398 23.1661L71.0136 22.9471L71.0486 22.8858L70.9785 22.842L70.996 22.7106L70.8559 22.7982V22.623L70.961 22.5968L70.7946 22.5617L70.7333 22.4916L70.7683 22.3778L70.6983 22.3252L70.637 22.4654L70.6807 22.5354L70.6194 22.588L70.5231 22.6318L70.3479 22.5442L70.3304 22.4391L70.2428 22.3428L70.1202 22.1939L70.2516 22.1238L70.164 22.0712V21.9924L70.2165 21.9048L70.3654 21.8786L70.2428 21.826L70.2341 21.7647L70.1202 21.7559L70.0852 21.8523L70.0326 21.8786L70.0414 21.5808L70.129 21.4932L70.199 21.5545L70.2078 21.4144L70.1202 21.3355L70.0414 21.4319L69.9538 21.5545L69.9012 21.4669L69.9188 21.2567L69.9976 21.1691L70.0764 21.2479L70.1815 21.1866L70.1465 21.0377L70.0589 21.1253L69.9801 20.9414L69.9625 20.7925L70.0589 20.5823L70.1552 20.4597L70.2779 20.4422L70.2341 20.3721L70.2779 20.3195L70.2516 20.2582L70.2691 20.0743L70.1377 20.1093L70.0677 20.2057L70.1552 20.3195L69.9275 20.6349L69.8487 20.5998L69.7874 20.6786L69.7348 20.8713L69.5772 20.9151L69.691 20.9677L69.8049 21.0815L69.7874 21.1428L69.8662 21.2479L69.7699 21.3355L69.8137 21.3618L69.7699 21.4757V21.6596L69.7261 21.7735L69.8049 21.8698L69.8662 22.1676L69.9801 22.2902L70.1202 22.4128L70.1552 22.6581L70.2954 22.8332L70.3304 22.9558V23.0434H70.2691L70.1377 22.9383L70.1027 22.9558L69.9976 22.9383L69.8487 22.8157L69.7261 22.7894L69.6385 22.8332L69.5334 22.807L69.4984 22.8245L69.3495 22.7544L69.2619 22.6668L69.1743 22.553L69.1217 22.5354L69.0517 22.5968L68.9115 22.7106L68.8152 22.6405L68.7802 22.4391L68.8502 22.2552L68.8239 22.2114L68.8502 22.1763L68.7889 22.0888L68.8765 22.08L68.9641 22.0012L68.9991 21.8435L69.148 21.6158L68.9203 21.4581L68.8327 21.607L68.7802 21.5545H68.6926L68.64 21.5457L68.605 21.5107L68.6137 21.4669L68.4649 21.4144L68.3948 21.4406L68.2897 21.4319L68.2284 21.3706L68.1846 21.353L68.1671 21.2917L68.2196 21.2217V21.1428L68.1145 21.1253L68.0269 21.0465L67.9481 21.0553L67.808 21.029L67.7291 20.9939L67.7467 20.8538L67.6591 20.81L67.6416 20.7487H67.5802L67.5102 20.6436L67.5277 20.556L67.3 20.5911L67.1073 20.4509L66.9847 20.4772L66.9058 20.5998H66.792L66.6431 20.8538L66.3541 20.8888L66.1876 20.8013L65.9599 21.1341L65.7672 21.1078L65.4957 21.4494L65.4169 21.5895L65.2592 21.7297L65.1104 20.7312L70.4092 19.6977L71.0749 22.0712L72.0296 21.8698V22.334L72.0208 22.6055L71.9332 22.7632L71.8807 22.7894ZM70.707 22.6318L70.5932 22.7106L70.6632 22.8683L70.8121 22.9383L70.7771 22.7982L70.707 22.6318Z" fill="#D0D0D0"/>
<path d="M77.591 14.8018H77.8888L77.9676 14.7492L77.9764 14.6354L77.81 14.4777L77.845 14.5653L77.7137 14.6967H77.5122L77.521 14.7668L77.591 14.8018ZM76.8028 14.9595L76.6977 14.9069L76.7853 14.8368L76.8378 14.6529L76.9429 14.5653L77.013 14.5478L77.0655 14.6266L77.1619 14.6441L77.2144 14.5916L77.2582 14.758L77.1443 14.7843L76.8991 14.8456L76.8028 14.9595ZM73.7461 12.91L75.3576 12.5771L75.4452 12.4458L75.4715 12.2969L75.6379 12.2443L75.6817 12.148L75.8306 12.0516L75.9444 12.0779L76.0933 12.3669L76.1809 12.402L76.2773 12.2881L76.3473 12.402V12.4983L76.0846 12.7085L76.1021 12.7786L76.0233 12.8662L76.0583 12.9362L75.9444 12.9625L76.0233 13.0676L75.9532 13.1289L76.0057 13.2165L76.0846 13.199L76.1108 13.1289L76.2072 13.1815H76.3648L76.5838 13.4092L76.6013 13.6369L76.759 13.6457L76.829 13.742L76.8816 13.9172L76.9692 13.9785H77.1356L77.302 13.9697L77.3721 13.8909L77.5122 13.7858L77.6085 13.7595L77.5034 13.5756L77.4772 13.6544L77.3458 13.3391H77.2757L77.2407 13.418L77.1356 13.3304L77.2495 13.234L77.4071 13.2691L77.6085 13.453L77.7224 13.6895L77.8275 13.9785L77.7399 14.2237V14.0661L77.6786 13.9785L77.3721 14.1799L77.2932 14.1537L77.1531 14.2413L77.1443 14.3464L76.9517 14.4515L76.7765 14.6354L76.6013 14.8018H76.4962L76.7853 14.5128L76.829 14.3464L76.7853 14.2938L76.759 14.1799L76.6801 14.1712L76.6714 14.285L76.5838 14.3902H76.4787L76.4524 14.4865L76.4875 14.5916L76.3824 14.6879L76.286 14.6704L76.251 14.758L76.1284 14.4953L76.0145 14.3989L75.7868 14.285L75.7342 14.0924H75.6642L75.6029 13.8646L75.0336 14.0398L75.0248 14.0135L73.7198 14.3113V14.3726L73.641 14.3989L73.5972 14.3376L72.6775 14.5478L72.6162 14.4602L72.66 13.1464L73.7461 12.91Z" fill="#D0D0D0"/>
<path d="M56.8686 17.9198L56.8773 18.0424L58.7516 17.7359L58.7954 17.6308L59.137 17.114V16.7374L59.2071 16.5535L59.3998 16.4834L59.5749 15.8003L59.6625 15.7565L59.7501 15.809L59.7326 15.8616L59.6362 15.9316L59.6625 16.0105L59.7326 16.0455L59.899 15.9229L59.934 15.0645L59.7939 14.8631L59.6888 14.539V14.3201L59.4874 13.9347V13.777L59.3822 13.488L59.1808 13.2253L58.9268 13.1377L58.5064 13.4004L58.2874 13.8033L58.2699 13.8821L58.0072 14.1887L57.8758 14.1712L57.6218 13.9259L57.613 13.6282L57.7444 13.4617L57.9196 13.4442L58.0247 13.2953L58.0422 12.945L58.1123 12.8749L58.2086 12.8662L58.2874 12.7173L58.2699 11.8765L58.2436 11.7626L58.1385 11.6575L57.9896 11.5699L57.9809 11.4123L58.0422 11.3597L58.1999 11.4298L58.1736 11.2809L58.0072 11.0444L57.9459 10.9043L57.8495 10.8079H57.6568L56.9474 10.5539L56.8248 10.405L56.5533 10.3788L56.4482 10.405L56.0628 10.2036H55.9402L55.984 10.2912L55.7475 10.2824L55.7562 10.335L55.8088 10.3875L55.5898 10.5714L55.5986 10.7291L55.73 10.9305L55.8613 10.9481V11.0006L55.73 11.0444L55.546 11.0356L55.3008 11.2546L55.3096 11.4736L55.3446 11.9816L55.1519 12.2793L55.222 11.8852L55.1519 11.8327L55.0731 12.2969L54.9855 12.0954L55.0293 11.894L54.9855 11.8064L55.038 11.6925L54.9855 11.5962L55.0731 11.5086V11.4035L54.9592 11.456L54.8454 11.7276L54.784 11.7889L54.6702 11.9991L54.5213 11.9816L54.5125 12.0867H54.3724L54.3899 12.218L54.4074 12.3932L54.1447 12.4983L54.1534 12.6122L54.241 12.7611L54.2323 13.2165L54.1184 13.6019L53.9695 13.8208L54.0746 13.9435L54.1447 14.25L54.0571 14.469L54.0396 14.6529L54.1885 14.9507L54.4074 15.3799L54.5125 15.5463L54.6527 16.1506L54.6439 16.9213L54.5651 17.2629L54.3899 17.5432L54.3111 17.8673L54.1359 18.13L54.0308 18.2176L56.8686 17.9198ZM48.4779 9.4416L48.7407 9.77442L50.2296 10.1072L50.3523 10.1948L50.7026 10.2649L50.7639 10.3087L51.0091 10.2912L51.4383 10.3612L51.5609 10.4926L51.4733 10.5802L51.5434 10.6503L51.8762 10.7116L51.9813 10.8167L51.9901 11.2021L51.8762 11.4473L52.0514 11.456L52.139 11.386L52.2178 11.456L52.1215 11.7276L52.209 11.8677L52.3142 11.894L52.3842 11.7363L52.6382 11.3334L52.7784 10.8079L52.9798 10.6328L52.936 10.4926L52.9798 10.4138L53.0674 10.5539L53.0411 10.7466L53.2951 10.5539L53.3126 10.3525L53.4965 10.405L53.5666 10.2649L53.6279 10.3174L53.5666 10.4488L53.479 10.4926L53.3914 10.6678L53.5141 10.8254L53.6104 10.7816L53.5666 10.7203L53.6542 10.589L53.8206 10.4401H53.8907L53.9082 10.2123L54.0834 10.0547L54.7753 10.0109L54.9417 9.73939L55.2745 9.71311L55.6073 9.81821L55.9752 10.0547L56.0365 10.0372L56.019 9.73063L56.0803 9.71311L56.4744 9.80945L56.6058 9.79194L56.8598 9.73063L57.0087 9.76566L57.1664 9.77442V9.67808L57.105 9.59925L56.9737 9.58173L56.8773 9.51167L56.9211 9.38905L56.851 9.36277L56.6233 9.37153L56.6146 9.28394L56.7109 9.21388L56.7635 9.28394L56.8073 9.12629L56.7459 9.06498L56.8073 9.04747L56.6846 8.9336L56.7109 8.81974L56.7197 8.65333H56.6058L56.4744 8.74092L56.308 8.74968L56.2642 8.90733L56.0978 8.92485L56.0715 8.81974L55.8789 8.8285L55.7913 8.9336L55.73 8.92485L55.7124 8.85478L55.4847 8.88981L55.476 8.46941L55.5636 8.29424L55.5022 8.28548L55.3446 8.38182H55.1519L54.8191 8.6183L54.2761 8.64457L53.917 8.71464L53.7505 8.84602L53.6279 8.95988L53.409 9.10877L53.3827 9.17884L53.3301 9.02995L53.2163 8.9774V9.02995L53.2776 9.09126V9.20512L53.1462 9.15257H53.0937L53.0674 9.25767L52.8922 9.09126L52.7784 9.07374L52.6645 9.20512L52.3842 9.19636L52.3404 9.07374L52.1653 8.90733L52.0514 8.76719V8.70588L51.9551 8.58327L51.7273 8.47816L51.4383 8.46941L51.342 8.39058H51.2193L51.158 8.42561L50.9653 8.6183L50.904 8.71464L50.8165 8.65333L50.834 8.56575L50.904 8.38182L51.1843 7.9439L51.2544 7.92638L51.4033 7.75997L51.4646 7.61983L51.7273 7.56728L51.7974 7.51473L51.7886 7.42715L51.7449 7.38335L51.3507 7.40087L51.1755 7.44466L50.9478 7.54976L50.8427 7.65487L50.6938 7.84755L50.5362 7.93514L50.2472 8.23293L50.2121 8.37306L49.564 8.77595L49.2137 8.81974L49.056 8.85478L48.8546 9.11753L48.6969 9.17884L48.3115 9.38029L48.4779 9.4416ZM57.2977 9.77442L57.6306 9.78318L57.6831 9.73939L57.6656 9.56422L57.5167 9.40656L57.3503 9.41532L57.3415 9.45911L57.4379 9.49415L57.2977 9.56422L57.2715 9.6518L57.2189 9.59925L57.1839 9.66932L57.2977 9.77442ZM50.7201 6.10461L50.5187 6.12213L50.2822 6.28854L49.6603 6.75274L49.7304 6.84033L49.8881 6.8666L50.1333 6.69143L50.0369 6.64764L50.2384 6.5075H50.326L50.5887 6.34109L50.58 6.26227L50.7201 6.10461ZM54.3198 11.6049V11.6925L54.5038 11.8327L54.4863 11.6225L54.3198 11.6049ZM54.2585 11.8502L54.3549 11.8589V11.9378H54.2673L54.2585 11.8502ZM56.1329 9.98462V10.0634L56.2029 10.0459V10.0021L56.1329 9.98462ZM56.5445 10.2561L56.5357 10.1598L56.3956 10.1423L56.3431 10.1072H56.2642L56.2292 10.1335L56.308 10.1686L56.4044 10.2649L56.5445 10.2561ZM54.968 10.3612L54.9592 10.4576L54.9329 10.5189L54.9505 10.7116L54.9855 10.7379L55.0468 10.7466L55.0906 10.6678L55.0993 10.5276L55.0731 10.4751L55.0643 10.3788L54.968 10.3612Z" fill="#D0D0D0"/>
<path d="M39.4749 5.55282L39.3785 5.79805L39.4486 5.92067L39.4223 6.36736L39.3785 6.4637L39.615 7.26072L39.7288 7.47968L39.7902 8.70587L39.8777 8.94235L39.8427 9.45034L40.0967 10.0985L40.123 10.6065L40.1142 10.7904L40.1055 10.9831L40.0266 11.1582L39.7551 11.3247L39.7288 11.4298L39.8777 11.6487L39.9128 11.8064L40.1405 11.8589L40.2719 12.0253L40.2544 15.4849H42.7242L45.9036 15.4061L47.5327 15.3448L47.4363 14.9507L47.4188 14.6879L47.2261 14.4252L46.9809 14.3639L46.5254 14.0485L46.4729 13.7595L45.9211 13.488L45.9036 13.3741H45.6145L45.4219 13.1464L45.2467 13.0326L45.308 12.5859L45.2292 12.4457L45.273 11.9728L45.3606 11.8151L45.3343 11.5787L45.2292 11.4648L45.0715 11.4385V11.2896L45.3168 10.7816L45.8335 10.4401L45.7985 9.30145L45.8773 9.33648L45.9299 9.29269L45.9386 9.19635L46.0174 9.1438L46.1401 9.2489L46.2014 9.24014L46.0963 9.04745L46.4729 8.77594L46.7444 8.45187L46.8845 8.38181L47.2962 7.86506L47.848 7.35706L48.1895 7.17314L48.7413 6.93666L49.407 6.54253L49.3544 6.50749L49.0304 6.5688L48.7851 6.57756L48.6975 6.43742L48.5749 6.3586L47.7166 6.4637L47.629 6.21846L47.4889 6.2097L47.34 6.27977L47.0159 6.55128H46.6568L46.4729 6.4637L46.4466 6.31481L46.105 6.24474L46.0525 6.1046L45.9912 5.99074L45.9036 6.06957L45.6759 6.07833L44.8088 5.59661H44.5548L44.4847 5.5353L44.2132 5.64916L44.1431 5.76302L43.8541 5.83309L43.7402 5.81557V5.66668L43.6789 5.58785H43.1622L43.1271 5.46523H42.8994L42.8031 5.50027L42.5929 5.35137L42.6191 5.22875L42.5666 5.01855L42.5053 4.92221L42.4878 4.65945L42.4002 4.38794L42.2163 4.2478H41.9623L41.971 4.94848L39.2646 4.91345L39.4749 5.55282Z" fill="#D0D0D0"/>
<path d="M53.4091 40.5866L52.9712 40.5954L52.761 40.464L52.069 40.683L51.9902 40.6217L51.9464 40.6392L51.9377 40.7793L51.8851 40.7881L51.6574 41.0246L51.5961 41.0158L51.5435 40.9545L51.4384 40.7968L51.4647 40.683L51.0443 40.0874L51.1231 39.6845L51.2107 39.5619L51.2195 39.4393L48.0664 39.6144L48.2153 38.5722L48.4255 38.1518L48.951 37.4161L48.7934 37.1971H48.9685V36.9081L48.7583 36.6891L48.8021 36.5402L48.697 36.4526L48.5569 35.8308L48.6094 35.7082L48.7145 35.5768L48.7583 35.314L48.627 35.1126L48.5832 34.9199L48.662 34.8586V34.7885L48.5131 34.6922L48.5043 34.6309L48.6445 34.552L48.5394 34.4557L48.6883 33.8338L48.986 33.6937V33.6236L48.8897 33.501L49.1437 33.0281H49.3101L49.4415 32.923L49.4152 32.4675L49.6867 32.0734L49.8444 32.0208L49.8006 31.7493L53.1551 31.5216L53.2689 31.6968L53.1551 37.565L53.5405 40.4728L53.4091 40.5866Z" fill="#D0D0D0"/>
<path d="M47.409 21.3445L47.3127 21.2482L47.2601 21.1081L47.1112 20.9942L45.8588 21.0643L43.4765 21.1694L41.208 21.1606L41.3219 21.2745L41.2956 21.3971L41.4795 21.7212L41.8211 22.2729L42.0751 22.5357L42.2503 22.5882L42.3291 22.5007L42.4605 22.6846L42.4517 22.7897L42.2152 23.0174L42.1714 23.2189L42.3904 23.4378L42.6181 23.8495L42.8984 23.9108L42.9422 28.1236L42.9597 29.0695L46.3843 29.0082L49.8702 28.833L50.0103 29.052V29.2447L49.8614 29.3761L49.6162 29.8228L50.5971 29.7527L50.6847 29.5775L50.7898 29.5337V29.4724L50.6847 29.3761L50.6321 29.2885L50.781 29.306L50.8511 29.2447L50.7285 29.1133L50.8511 29.0695L50.8599 28.9819L50.8073 28.8944V28.7805L50.746 28.7192L50.7635 28.6316H50.8599L50.9212 28.6929L50.8949 28.7805L50.965 28.8418L51.035 28.7542L51.1226 28.5177L51.2452 28.5966L51.3065 28.5615L51.4116 28.2024L51.3241 28.1149L51.4116 27.9397L51.4292 27.8609L51.3153 27.7908H51.0701L50.9474 27.6594L50.7898 27.3266V27.1602L50.8599 27.1076L50.8686 26.9938L50.7197 26.8274L50.6409 26.6084L50.4044 26.2493L49.984 26.1354L49.3359 25.5136L49.3008 25.3034L49.5461 24.6377L49.511 24.4713L49.6162 24.375V24.2611L49.3709 24.1297L49.1082 24.0684L48.8104 24.1735L48.6965 23.9721L48.7491 23.8057L48.6878 23.5955L47.9345 22.8598L47.7418 22.7284L47.5229 22.2116L47.4178 21.7387L47.5404 21.4146L47.409 21.3445Z" fill="#D0D0D0"/>
<path d="M20.4075 10.9745L25.4261 11.6664L29.8929 12.1306L30.0681 10.3176L30.5235 4.47569L25.8378 3.98522L21.0819 3.31081L15.3101 2.216L14.8896 4.14287L15.2137 4.791L15.0736 5.2114L15.3889 5.63181L15.5553 5.69312L15.8969 6.42008V6.604L16.0983 6.86676H16.1771L16.2998 7.05069H16.58V7.19082L15.9582 8.67977L15.9144 9.03886L16.037 9.08266L16.1771 9.31038L16.4224 9.18776L16.7377 8.97755L16.9041 9.14396L16.9479 9.36293L16.9041 9.6432L17.1231 10.4928L17.3508 10.7993L17.5522 10.9219L17.5873 11.1847V11.5438L17.7887 11.7452L17.9288 11.5438L18.5332 11.6839L18.7171 11.5788L19.5054 11.7277L19.7506 11.4387L19.9083 11.3861L20.0134 11.5438L20.1535 11.9029L20.2323 11.9116L20.4075 10.9745Z" fill="#D0D0D0"/>
<path d="M34.0272 16.2819L37.3554 16.4221L37.6532 16.7024L37.8021 16.7199L37.986 16.895L38.1437 16.8863L38.3013 16.7111L38.4327 16.7637L38.5203 16.7024L38.5816 16.7461L38.6604 16.7111L38.7217 16.7461L38.8006 16.7111L38.8881 16.7549L39.0108 16.7024L39.1859 16.7549L39.2385 16.8513L39.7728 17.0439L39.8779 17.1578L39.9567 17.3855L40.1143 17.4468L40.2457 17.4293L40.2895 17.5081V17.7096L40.3421 17.8585V17.9811L40.4559 18.3052L40.6486 18.6818L40.6661 19.0058L40.9114 19.4438L40.9464 19.978L41.0602 20.0393L41.0427 20.2933L41.1128 20.5824L41.0515 20.7751L41.2091 21.1604L41.323 21.2743L41.2967 21.3969L41.4807 21.721L41.8222 22.2728H38.9845L35.157 22.1676L32.004 21.9925L32.1266 20.0569L29.2275 19.8467L29.5516 15.9754L34.0272 16.2819Z" fill="#D0D0D0"/>
<path d="M13.4529 25.5397L13.1551 27.0724L12.9449 27.3264H12.7698L12.6647 27.0899L12.3406 26.9673L12.034 27.0199L11.9465 28.211L11.9903 28.6402L11.9465 28.8942L11.8238 29.1569L5.65787 19.9605L5.56152 19.654L6.99792 14.1274L11.1144 15.1083L13.2515 15.5813L15.2922 15.9929L13.4529 25.5397Z" fill="#D0D0D0"/>
<path d="M74.3242 7.74246L74.2103 7.75122L74.1227 7.65488L73.9563 7.77749L73.9125 8.31176L74.0176 8.51321L73.9213 8.81975L74.1052 9.06499L74.0702 9.21389L74.0789 9.32775L73.9826 9.51167L73.86 9.54671L73.8074 9.66057L73.6235 9.74815L73.5622 9.87953L73.6848 10.1773L73.641 10.3963L73.6848 10.5277L73.5972 10.6941L73.6323 10.8605L73.5184 11.0269L73.5359 11.2196L73.4746 11.3159L73.5359 11.7101L73.5972 11.8414L73.5534 12.0692L73.6323 12.2268L73.6147 12.4458L73.571 12.5596L73.5622 12.6822L73.7461 12.91L75.3577 12.5771L75.4453 12.4458L75.4715 12.2969L75.638 12.2443L75.6817 12.148L75.8306 12.0516L75.9445 12.0779L76.0146 11.6575L75.8131 11.5349L75.7431 11.3422L75.4628 11.167L75.4102 10.8167L74.368 7.59357L74.3242 7.74246Z" fill="#D0D0D0"/>
<path d="M72.5642 16.6587L71.2855 16.2296L71.1278 16.4485L71.1366 16.6412L70.8738 17.1142L71.0052 17.2718L70.9439 17.447L70.8563 17.5346L70.9001 17.8499L71.1366 17.9287L71.2241 18.1739L71.4081 18.2703L71.7759 18.5506L71.4869 18.7783L71.3468 18.9797L71.1891 19.2425L71.049 19.295L70.9264 19.4439L70.8388 19.6366L70.8125 19.8205L70.8826 19.8994L70.9176 20.1008L71.0227 20.1534L71.2329 20.2847L71.3906 20.3548L71.5307 20.4249L71.5395 20.5212L71.6095 20.53L71.7059 20.4249L71.7759 20.4599L71.9599 20.4774L71.9423 20.7314L71.9599 20.9504L72.1175 20.8891L72.2489 20.5475L72.389 20.1271L72.643 19.8818L72.6956 19.5753L72.643 19.4702L72.7919 19.2162V19.1111L72.7306 19.0148L72.8357 18.7783L72.8094 18.463L72.7569 17.7448L72.6518 17.6222V17.7448L72.6956 17.7973H72.5992L72.5467 17.7623L72.4328 17.7448L72.354 17.7973L72.2489 17.6572L72.3102 17.5083V17.4207L72.4591 17.3594L72.5292 17.1755L72.5642 16.6587Z" fill="#D0D0D0"/>
<path d="M30.085 28.7016H30.015L29.3231 37.3987L26.5379 37.171L23.5249 36.8557L23.4987 37.1185L23.6738 37.3111L20.9762 36.952L20.8536 37.8454L19.4785 37.6527L21.0025 26.7834L25.6095 27.3527L30.1376 27.7732L30.085 28.7016Z" fill="#D0D0D0"/>
<path d="M75.2269 15.4499L75.113 15.4587L75.0692 15.5462L75.2269 15.4499ZM72.5468 17.4381L72.6081 17.4906L72.722 17.4644L72.8183 17.4906L72.8971 17.3768H73.0635L73.2737 17.2979L73.7204 17.114L73.6766 17.0702L73.5102 17.1403L73.335 17.2191L73.3526 17.1491L73.5803 17.0527L73.6504 16.9651L73.7555 16.9739L74.1146 16.7724V16.8337L73.7467 17.0965L74.1408 16.8513L74.2897 16.6586L74.4211 16.6498L74.8152 16.3783L75.0955 16.1068L75.3583 15.9053L75.4458 15.8002L75.2969 15.7915L75.2094 15.8966L75.1918 15.9579L75.113 16.0192L75.043 15.9229L74.8941 16.0104L74.8853 16.0893L74.8065 16.0718L74.8503 15.9929L74.7452 15.9316L74.6926 16.0104L74.7714 16.0367L74.789 16.0805L74.7627 16.1243L74.6401 16.352H74.4737L74.5525 16.1944L74.6313 16.1418L74.6576 15.9929L74.7802 15.8528L74.859 15.7827L74.9904 15.7214L74.8853 15.7039L74.824 15.7827H74.7627L74.6663 15.8528L74.6488 15.9404L74.4561 16.1243L74.4211 16.2031L74.2985 16.282L73.6241 16.4484L73.6416 16.5272L73.5628 16.5885L73.3876 16.6148L73.3 16.5622L73.2825 16.6586L73.1862 16.6235L73.1949 16.7111L73.0898 16.7024L72.9847 16.7462L72.9672 16.8425H72.8796L72.8971 16.9301H72.8358L72.8533 17.0177L72.6957 17.0527L72.5643 17.2542L72.5468 17.4381ZM72.4767 17.403L72.3366 17.4381V17.5257L72.2753 17.6658L72.3278 17.7271L72.538 17.5257L72.5293 17.4468L72.4767 17.403ZM71.5921 9.06497L71.5396 9.23138L71.6622 9.31021L71.6271 9.44159L71.6709 9.72186L71.8636 9.9233L71.8286 10.116L71.8811 10.2912L71.8461 10.3787L71.8198 10.7116L72.0913 11.2984L72.0213 11.456L72.1001 11.6487L72.1789 11.5086L72.3453 11.64L72.6081 12.8837L72.5643 13.0588L72.6606 13.1464L72.6169 14.4602L72.6782 14.5478L72.9234 15.9754L73.0811 16.1068L72.7745 16.4046L72.9234 16.5973L72.8095 16.8863L72.6782 17.0352L72.5468 17.2366L72.5293 17.1753L72.5643 16.6586L71.2856 16.2294L71.1454 16.1331L70.979 16.1593L70.7163 15.9667L70.4535 15.4587H70.2783L70.2433 15.3273L70.0944 15.2309L63.9197 16.4484L63.8496 15.9229L64.2262 15.5813L64.2788 15.4324L64.6204 15.2134L64.6729 15.0032L64.8744 14.8281L64.9444 14.7317L64.7955 14.4427L64.6466 14.3989L64.489 14.1361L64.4715 13.8559L65.1371 13.5143L65.8553 13.3741H66.2407L66.5209 13.5143L66.5998 13.5055L66.7574 13.3654L67.0552 13.3041H67.318L67.5457 13.1902L67.7647 12.9625L67.9749 12.691L68.1413 12.6559L68.2376 12.6122L68.2726 12.3319L68.15 12.0954L68.0449 12.0341L68.2201 11.9202L68.2113 11.7626H68.08L67.8785 11.64L67.8698 11.3685L68.4128 10.8342L68.4741 10.624L68.7982 10.0722L69.3149 9.51165L69.4988 9.36276L69.7178 9.37152L71.522 8.91608L71.5921 9.06497Z" fill="#D0D0D0"/>
<path d="M71.3812 25.8288L68.8325 26.3631L65.3816 27.0024L62.8066 27.309V27.7644L62.6752 27.7557L62.5526 27.8608L62.3424 28.3162L62.1147 28.2199L61.8081 28.4388L61.7468 28.6228L61.6155 28.7279L61.5454 28.6578L61.5366 28.5264L61.4666 28.5089L61.1162 28.7979L61.0637 29.0957L60.652 29.3059L60.6082 29.411L60.328 29.6387L60.0127 29.6825L59.6098 29.9453L59.5397 30.3044L59.4258 30.3832L59.2945 30.3744L59.1718 30.4883L59.1631 30.9175L61.0374 30.6547L61.4228 30.4883L61.5366 30.4796L62.176 30.1029L64.208 29.9102L64.243 29.954L64.2255 30.0767L64.2868 30.1029L64.3919 29.9716L64.6809 30.2343L64.6897 30.462L66.4151 30.2168L68.5609 31.7145L68.9113 31.5218L69.174 31.4605H69.3229L69.4193 31.5568L69.4893 31.3817L69.5419 30.9437L69.6908 30.6022L70.1637 30.0679L70.5228 29.7614L70.9958 29.5599L71.2148 29.5249L71.3286 29.5599L71.3899 29.6563L71.679 29.0782L71.968 28.614L71.9067 28.5877L71.5213 29.1833L71.4775 29.1132L71.6527 28.9205L71.6177 28.7892L71.4425 28.7454L71.5301 28.8592L71.425 28.868L71.3199 28.7103L71.2148 28.8855L71.0746 28.903L71.1622 28.6665L71.2235 28.5176L71.206 28.2637L71.0133 28.2549L71.0921 28.1761L71.1885 28.2023L71.425 28.2111L71.495 28.1673H71.6965L71.8716 28.0009L71.8892 27.7206L72.003 27.598L72.1081 27.5805L72.222 27.4929L72.1782 27.1688L71.9855 26.836L71.749 26.8185L71.6702 26.9586L71.6264 26.8711L71.3899 26.8886L71.2848 26.9236L71.1184 27.0287L71.0921 26.9937H71.0133L70.8557 27.0988L70.6279 27.1426V27.0287L70.698 26.9411L70.7856 27.0024H70.8732L71.0221 26.8185L71.3461 26.6696L71.5213 26.4769H71.7315L71.8016 26.5908L71.9505 26.6609L71.9067 26.5295L71.8804 26.3893L71.6352 26.1178L71.6089 25.9952L71.5739 26.0828L71.495 25.9689L71.3812 25.8288ZM71.9943 28.5439L72.2307 28.325L72.6336 28.0359V27.7119L72.5986 27.4404L72.4497 27.0725L72.5811 27.1951L72.6687 27.4754L72.7037 28.141L72.5548 28.1761L72.2833 28.3863L72.003 28.6665L71.9943 28.5439ZM72.1607 26.8535L72.0819 26.836V26.9236L72.3008 27.1163L72.2833 26.9937L72.1607 26.8535ZM72.4147 27.0375L72.2921 26.7922L72.0994 26.4944L71.8892 26.2317L71.6965 25.8551L71.6264 25.7938L71.8191 26.1704L71.8454 26.2842L72.1432 26.766L72.3008 26.9499L72.4147 27.0375Z" fill="#D0D0D0"/>
<path d="M39.474 5.55306L39.3777 5.7983L39.4477 5.92092L39.4214 6.3676L39.3777 6.46394L39.6141 7.26097L39.728 7.47993L39.7893 8.70612L39.8769 8.9426L39.8419 9.45059L40.0958 10.0987L40.1221 10.6067L40.1134 10.7906L37.5296 10.7556L33.5007 10.5717L30.0674 10.3177L30.5228 4.47577L34.4204 4.77356L39.2638 4.91369L39.474 5.55306Z" fill="#D0D0D0"/>
<path d="M58.8311 17.8324L58.9975 17.7974L59.2602 17.9112L59.4442 17.9638L59.5055 18.0426H59.5931L59.6806 17.9112L59.7945 17.9813H59.9259L59.9171 18.0689L59.6456 18.1127L59.4704 18.209L59.6369 18.2791L59.777 18.1477L59.9872 18.1127L60.1799 18.244L60.3113 18.2353L60.5302 18.0864L60.8455 17.9025L61.301 17.8762L61.7301 17.3594L62.0629 17.0879L62.8775 16.6412L63.3067 19.26L63.114 19.3651L63.2366 19.5491L63.2278 19.7417L63.2804 19.9169L63.184 20.2147L63.1753 20.6877L63.0877 21.003L63.1315 21.0993L63.0965 21.292L63.0001 21.3358L62.8249 21.6248L62.6673 21.8H62.6147L62.4571 21.9489L62.3432 21.8438L62.2118 22.0014L62.1856 22.1065H62.0717L61.9579 22.2992L61.9666 22.4831L61.879 22.5269L62.0016 22.6233V22.7897L61.9141 22.8072L61.8527 22.8773L61.7652 22.9211L61.7126 22.7371L61.5725 22.6933L61.4849 22.8948L61.4586 23.0875L61.3623 23.2013L61.4761 23.5166L61.3448 23.5867L61.3097 23.8933H61.1783L60.8981 24.0159L60.793 23.832L60.4864 23.7093L60.4164 23.4553L60.3726 23.3853L60.0748 23.5429L60.0222 23.6918H59.9434L59.8295 23.7531L59.7244 23.6831L59.4617 23.613L59.2953 23.6831V23.7706L59.1026 23.7531L58.9362 23.5692L58.7347 23.5867L58.3756 23.5254V23.4378L58.1829 23.14L57.9289 23.0349L57.7625 23.105L57.5698 23.0962L57.456 23.0524L56.8779 18.0426L58.7522 17.736L58.8311 17.8324Z" fill="#D0D0D0"/>
<path d="M42.6972 34.4561L42.2943 34.1233L42.1016 34.0445L42.0578 34.1846L41.6111 34.2109L41.5586 34.0795L41.1207 34.2984L40.9805 34.2371L40.6565 34.2634L40.6039 34.4123L40.2886 34.4911L40.1747 34.386L40.0696 34.3948L39.8945 34.2371L39.7105 34.2984L39.5354 34.2547L39.3777 34.0795L39.1588 34.4473L39.0536 34.5174L38.9661 34.3598L38.9923 34.1846L38.8872 34.1233L38.6858 34.3422L38.5369 34.2371L38.5281 34.1058L38.4143 34.1496L38.1866 34.0007L37.9238 34.2284L37.7224 34.132L37.7837 33.9481L37.5822 33.9569L37.4158 33.6941L37.1093 33.5978L36.9341 33.7992L36.7327 33.6065L36.61 33.6416L36.4349 33.6503L36.1283 33.4839L35.9269 33.4927L35.8218 33.4314L35.778 33.1774L35.5765 33.0285L35.4802 33.1598L35.3576 33.0723L35.2525 33.0372L35.1561 33.1248L35.0247 33.0985L34.8058 32.8358L34.5693 32.7219L34.6919 28.982L30.085 28.7018L30.1375 27.7734L31.5827 27.861L37.5122 28.115L42.9424 28.1237L42.9599 29.0696L43.319 31.2067L43.2577 34.6225L42.6972 34.4561Z" fill="#D0D0D0"/>
<path d="M6.99794 14.1274L11.1144 15.1084L11.8589 11.8415L12.1129 11.3335L12.1479 11.1496L12.218 11.0707L12.1392 10.8956L11.8852 10.7905L11.9027 10.4226L12.253 9.91461L12.472 9.84454L12.6121 9.64309L12.6034 9.50296L12.761 9.36282L13.0413 8.88111L13.4092 8.4607L13.3654 8.18043L13.0588 7.90891L12.9187 7.59361L10.2649 6.95424L10.0196 7.04182L9.54666 6.963L9.38901 6.88417L9.25763 6.98927L8.9686 6.95424L8.57447 6.99803L8.49565 7.05934L8.12779 7.02431L8.05772 6.88417L7.95262 6.86665L7.56725 6.98051L7.42711 6.88417L7.23442 6.95424L7.21691 6.79659L7.01546 6.69148L6.88408 6.67397L6.7965 6.57762L6.53374 6.6039L6.42864 6.53383H6.32354L6.21844 6.61266L5.73672 6.67397L5.15866 6.30611L5.25501 5.81564L5.21997 5.45654L4.9397 5.13247L4.61564 5.14123L4.5806 5.04489L4.61564 4.93979L4.55433 4.86972L4.46674 4.87848L4.3704 4.99234L4.23902 4.97482L4.19523 4.87848L4.10765 4.86972L4.04634 4.92227L3.87117 4.75586V5.13247L3.75731 5.24633L3.66096 5.55288L3.6522 5.75433L3.25807 6.83162L2.10195 9.57303L1.82168 9.97592L1.68155 9.96716L1.6903 10.1511L1.23486 10.7729L1.20859 11.062L1.29617 11.1758L1.30493 11.386L1.19983 11.4824L1.09473 11.7451L1.10349 12.2444L1.20859 12.4984L6.99794 14.1274Z" fill="#D0D0D0"/>
<path d="M71.145 16.1333L70.9786 16.1595L70.7158 15.9669L70.453 15.4589H70.2779L70.2428 15.3275L70.0939 15.2311L63.9192 16.4486L63.8491 15.9231L63.4813 16.2208L63.4025 16.2296L63.166 16.4924L62.877 16.6413L63.3061 19.26L63.5864 20.9855L65.1104 20.7315L70.4092 19.698L70.5143 19.514L70.6457 19.4177L70.7859 19.3914L70.926 19.444L71.0486 19.2951L71.1888 19.2425L71.3464 18.9798L71.4865 18.7783L71.7756 18.5506L71.4077 18.2703L71.2238 18.174L71.1362 17.9288L70.8997 17.8499L70.8559 17.5346L70.9435 17.447L71.0048 17.2719L70.8734 17.1142L71.1362 16.6413L71.1274 16.4486L71.2851 16.2296L71.145 16.1333Z" fill="#D0D0D0"/>
<path d="M76.129 14.4953L76.0151 14.399L75.7874 14.2851L75.7349 14.0924H75.6648L75.6035 13.8647L75.0342 14.0399L75.3145 15.1171L75.2794 15.2135L75.3145 15.3711L75.8049 15.0558L75.8137 14.7931L75.7436 14.723L75.7787 14.6705L75.7699 14.5566L75.6911 14.4953L75.7962 14.4603L75.7173 14.3201L75.875 14.3814L75.9013 14.5041L75.9626 14.6092L75.84 14.5391L75.9363 14.688L75.91 14.7931L75.8575 14.6967V14.9157L75.91 14.8369L75.9451 14.9157L76.0589 14.7843L76.0414 14.5654L76.164 14.8369L76.2516 14.7581L76.129 14.4953ZM75.7173 15.5638H75.7962L75.84 15.5113L75.7699 15.3974L75.7086 15.4587L75.7173 15.5638Z" fill="#D0D0D0"/>
<path d="M66.4157 30.2168L64.6903 30.4621L64.6816 30.2343L64.3925 29.9716L64.2874 30.103L64.2261 30.0767L64.2436 29.9541L64.2086 29.9103L62.1766 30.103L61.5373 30.4796L61.4234 30.4883L61.038 30.6547L61.0293 30.8212L60.8629 30.9087L60.7402 31.189L60.7578 31.3029L61.292 31.6357L61.5197 31.6094L61.7913 31.9598L61.8263 32.1087L62.1941 32.5553L62.4219 32.7042L62.5445 32.7217L62.7372 32.8619L62.8335 33.0546L63.0087 33.1947L63.1663 33.2385L63.4028 33.475L63.4116 33.5976L63.6393 33.8428L64.0772 34.0443L64.3925 34.6311L64.4188 34.8676L64.7604 35.0515L64.9793 35.4719L65.0494 35.7434L65.4173 35.7785L65.4873 35.6471H65.5399L65.6975 35.5157L65.7413 35.3405L66.0216 35.1566L66.0479 34.9464L65.9428 34.8676L66.0128 34.8063L66.0829 34.8413L66.1968 34.8063L66.3544 34.6223L66.6872 34.4647L66.8274 34.2545L66.8361 34.1932L67.2565 33.8078L67.2478 33.764L67.169 33.6939L67.2653 33.5626H67.3354L67.3704 33.6064L67.4317 33.5363H67.5456L67.5981 33.4049L67.7996 33.221L67.7733 32.748L67.8434 32.5466L68.1587 32.0036L68.3689 31.8109L68.5616 31.7145L66.4157 30.2168Z" fill="#D0D0D0"/>
<path d="M33.5018 10.5717L37.5307 10.7556L40.1145 10.7906L40.1057 10.9833L40.0269 11.1585L39.7554 11.3249L39.7291 11.43L39.878 11.649L39.913 11.8066L40.1408 11.8592L40.2721 12.0256L40.2546 15.4852L40.0619 15.4764L40.0532 15.6166L40.167 15.7479L40.1583 15.8443L40.0707 15.8881L40.1057 16.0282L40.2196 16.0633L40.2809 16.2384L40.132 16.6851L40.0444 17.0617L40.1583 17.1668L40.1846 17.2807L40.2459 17.4296L40.1145 17.4471L39.9568 17.3858L39.878 17.1581L39.7729 17.0442L39.2386 16.8515L39.1861 16.7552L39.0109 16.7026L38.8883 16.7552L38.8007 16.7114L38.7219 16.7464L38.6606 16.7114L38.5818 16.7464L38.5204 16.7026L38.4329 16.7639L38.3015 16.7114L38.1438 16.8866L37.9862 16.8953L37.8023 16.7201L37.6534 16.7026L37.3556 16.4224L34.0273 16.2822L29.5518 15.9757L29.8933 12.1307L30.0685 10.3177L33.5018 10.5717Z" fill="#D0D0D0"/>
<path d="M53.1553 31.5217L57.1579 31.1714L59.1636 30.9174L59.1724 30.4882L59.295 30.3743L59.4264 30.3831L59.5402 30.3043L59.6103 29.9452L60.0132 29.6824L60.3285 29.6386L60.6088 29.4109L60.6525 29.3058L61.0642 29.0956L61.1167 28.7978L61.4671 28.5088L61.5372 28.5263L61.5459 28.6577L61.616 28.7277L61.7474 28.6226L61.8087 28.4387L62.1152 28.2198L62.3429 28.3161L62.5531 27.8607L62.6758 27.7556L62.8071 27.7643V27.3089L62.8334 27.2476L62.4305 27.2914L62.413 27.3789L59.8818 27.668L59.3913 27.7906L57.5958 27.9132L57.1404 27.9833L55.6164 28.0709L55.3887 28.1409L53.4093 28.3161L53.348 28.2635H53.0239L53.129 28.5438L53.0765 28.6226L51.0357 28.754L50.9657 28.8416L50.8956 28.7803H50.808V28.8942L50.8606 28.9817L50.8518 29.0693L50.7292 29.1131L50.8518 29.2445L50.7817 29.3058L50.6328 29.2883L50.6854 29.3759L50.7905 29.4722V29.5335L50.6854 29.5773L50.5978 29.7525L50.6066 29.805L50.7292 29.8926L50.6941 29.9539H50.5628V29.9977L50.6416 30.0766L50.6504 30.1466L50.5277 30.1641L50.4839 30.2342L50.3438 30.2517L50.265 30.3305L50.3175 30.4094L50.4139 30.4006L50.4577 30.4794L50.3175 30.5933L50.3526 30.7247L50.1774 30.6721L50.1686 30.7334L50.2037 30.8298L50.1774 30.9524L50.0635 30.8823L49.9935 30.9524L50.0898 30.9612L50.0986 31.0925L50.046 31.1801L50.1424 31.2589L50.1161 31.3903L50.1862 31.4516L50.1248 31.5392L50.0197 31.4954L49.9409 31.6881L49.8008 31.7494L53.1553 31.5217Z" fill="#D0D0D0"/>
<path d="M23.499 37.1185L23.5253 36.8557L26.5382 37.1711L29.3234 37.3988L30.0153 28.7016H30.0854L34.6924 28.9819L34.5698 32.7217L34.8062 32.8356L35.0252 33.0984L35.1566 33.1246L35.2529 33.037L35.358 33.0721L35.4806 33.1597L35.577 33.0283L35.7784 33.1772L35.8222 33.4312L35.9273 33.4925L36.1288 33.4837L36.4353 33.6501L36.6105 33.6414L36.7331 33.6064L36.9345 33.799L37.1097 33.5976L37.4163 33.6939L37.5827 33.9567L37.7841 33.9479L37.7228 34.1319L37.9242 34.2282L38.187 34.0005L38.4147 34.1494L38.5286 34.1056L38.5373 34.237L38.6862 34.3421L38.8877 34.1231L38.9928 34.1844L38.9665 34.3596L39.0541 34.5172L39.1592 34.4472L39.3782 34.0793L39.5358 34.2545L39.711 34.2983L39.8949 34.237L40.0701 34.3946L40.1752 34.3859L40.289 34.491L40.6043 34.4121L40.6569 34.2632L40.981 34.237L41.1211 34.2983L41.559 34.0793L41.6116 34.2107L42.0583 34.1844L42.102 34.0443L42.2947 34.1231L42.6976 34.4559L43.2582 34.6223L43.4859 34.8238L43.7311 34.7099L44.0114 34.78L44.0289 35.8222L44.0727 37.5652L44.134 37.863L44.3617 38.1082L44.423 38.5812L44.7559 38.9841L44.8259 39.3607H44.9135L44.9048 40L44.6157 40.5606L44.7296 40.762L44.6157 40.8934L44.677 41.1562L44.6683 41.5328L44.4756 41.8393L44.4668 41.9094L44.3179 42.0145L44.4055 42.1721L44.5106 42.2685L44.2041 42.2948L43.4684 42.6363L43.1618 42.759L43.0042 42.9166L42.9429 42.8728L43.1268 42.6714L43.2844 42.6101L43.3282 42.5312L43.0742 42.5225L43.0129 42.4524L43.083 42.2772L43.0042 42.1196H42.9516L42.7414 42.2335L42.575 42.4612L42.6013 42.6101L42.8903 42.9079L43.0042 42.9341V43.0042L42.8027 43.1443L42.3736 43.4947L42.0232 43.8363L41.7429 43.9589L41.305 44.2216L40.981 44.3968L40.5868 44.5632L40.2277 44.7822L40.508 44.5194V44.4231L40.5606 44.353L40.543 44.1954L40.4117 44.1866L40.3153 44.318L40.0876 44.4318L39.9299 44.3267L39.9037 44.1778H39.7723L39.8424 44.3705L39.965 44.4318L40.0701 44.5107L40.2277 44.6508L40.1664 44.7209L39.8248 44.8698L39.6759 44.8785L39.5708 44.7734L39.5271 44.9573L39.5708 45.0537L39.3344 45.2289L39.203 45.2464L39.1329 45.3077L39.0979 45.4566L38.9402 45.7456L38.8001 45.8069L38.66 45.7544L38.5023 45.8507L38.5286 45.9733L38.6424 46.0434L38.73 46.1135L38.5724 46.42L38.5461 46.6652L38.4585 46.8141L38.3359 46.9017L38.0819 46.9368L38.2396 46.9893L38.406 46.9368L38.3709 47.217L38.2746 47.2083L38.2921 47.3134L38.3184 47.436L38.2045 47.5148V47.7863L38.3447 47.909L38.3972 48.1805L38.3622 48.3732L38.2746 48.4082L38.3096 48.5396L38.406 48.5746L38.476 48.7235V48.9512L38.5724 49.1351L38.7651 49.3629L38.7563 49.4242L38.5636 49.4067L38.4235 49.5293L38.441 49.6519L38.3622 49.6256L38.2396 49.6081L37.9418 49.284L37.7403 49.2315H37.1185L36.8732 49.1614L36.5579 48.8987L36.409 48.8111L36.2251 48.8198L35.9448 48.5921L35.4719 48.452V48.3381L35.3493 48.1805L35.2704 47.7688L35.1741 47.6199L35.0252 47.4973V47.3572L34.9026 47.3046L34.9551 47.0769L34.9288 46.8842L34.815 46.7616L34.8763 46.4988L34.8062 46.2186L34.6573 46.0959H34.561L34.2107 45.7894L34.2194 45.623L34.1493 45.4741L34.0793 45.4566L34.0004 45.2464L33.8253 45.1062L33.5713 44.8873L33.5538 44.7033L33.4662 44.642L33.4837 44.5019L33.5275 44.4406L33.4049 44.3092L33.4136 44.2479L33.2385 44.0552L33.2472 43.8713L33.0107 43.4421L33.002 43.2932L32.8443 43.0217L32.3976 42.6013V42.505L32.1086 42.3561L32.0999 42.1984L31.9948 42.1634V42.1021L31.9247 42.0846L31.7408 41.8393H31.6707L31.6094 41.7868L31.4955 41.8831H31.3028L31.0751 41.7868H30.6722L30.3044 41.6028L30.1905 41.7693L29.9978 41.7167L29.7088 41.8218L29.5599 42.067L29.3847 42.3473L29.2884 42.7327L29.1658 42.8378L29.0694 42.8466L28.9906 42.9867L28.8767 43.0392L28.868 43.1969L28.614 43.2056L28.4563 43.0743H28.3687L28.1936 42.8203L27.8783 42.7765L27.7294 42.575L27.6155 42.5575L27.4316 42.4875L27.1338 42.1897L27.1513 42.1196L27.0112 42.0145L26.9236 42.0057L26.6258 41.7342L26.617 41.5591L26.4156 41.2087L26.4331 41.0686L26.3718 40.9547L26.4419 40.8233L26.4331 40.6131L26.2054 40.254L26.1528 39.8862L26.0127 39.746V39.6585L25.9076 39.6409L25.8463 39.5446L25.6361 39.3957L25.5573 39.3869L25.3909 39.2468V39.1505L25.1369 38.9928L25.0843 38.8089L24.8566 38.6074L24.5763 38.2221L24.3136 38.1082L24.1296 37.9506L24.1472 37.8455L24.0333 37.7228L23.8844 37.3988L23.6742 37.3112L23.499 37.1185ZM38.8176 49.2315L38.8877 49.2402L38.8351 48.8198L38.5286 47.7425L38.5111 47.0331L38.9402 46.1135L39.4745 45.3953L40.1051 44.9486V44.8873H40.035L39.8073 44.9749L39.492 45.1763L39.4307 45.3077L38.7125 46.3237L38.4673 47.0156V47.7863L38.7826 48.8374L38.8176 49.2315Z" fill="#D0D0D0"/>
<path d="M19.1987 18.6294L19.4877 16.7113L15.2924 15.9931L13.4531 25.5398L17.4995 26.258L21.0029 26.7836L22.0102 19.0498L19.1987 18.6294Z" fill="#D0D0D0"/>
<path d="M74.0177 8.51334L73.9213 8.81988L74.1052 9.06512L74.0702 9.21401L74.079 9.32787L73.9826 9.5118L73.86 9.54684L73.8075 9.6607L73.6235 9.74828L73.5622 9.87966L73.6848 10.1774L73.641 10.3964L73.6848 10.5278L73.5972 10.6942L73.6323 10.8606L73.5184 11.027L73.5359 11.2197L73.4746 11.316L73.5359 11.7102L73.5972 11.8416L73.5535 12.0693L73.6323 12.2269L73.6148 12.4459L73.571 12.5598L73.5622 12.6824L73.7461 12.9101L72.6601 13.1466L72.5637 13.059L72.6075 12.8838L72.3448 11.6401L72.1784 11.5087L72.0995 11.6489L72.0207 11.4562L72.0908 11.2985L71.8193 10.7117L71.8455 10.3789L71.8806 10.2913L71.828 10.1161L71.8631 9.92345L71.6704 9.72201L71.6266 9.44173L71.6616 9.31036L71.539 9.23153L71.5916 9.06512L71.5215 8.91623L73.9126 8.31189L74.0177 8.51334Z" fill="#D0D0D0"/>
<path d="M71.881 22.7894L71.7846 23.0347L71.8284 23.131L71.8634 23.0347L71.9335 22.7632L71.881 22.7894ZM68.8505 22.1764L68.7892 22.0888L68.8768 22.08L68.9644 22.0012L68.9994 21.8435L68.9819 21.7997L68.9907 21.7559L68.9644 21.6946L68.9118 21.6508L68.8768 21.6421L68.833 21.6071L68.7805 21.5545H68.6929L68.6403 21.5457L68.6053 21.5107L68.614 21.4669L68.4652 21.4144L68.3951 21.4406L68.29 21.4319L68.2287 21.3706L68.1849 21.3531L68.1674 21.2917L68.2199 21.2217V21.1429L68.1148 21.1253L68.0272 21.0465L67.9484 21.0553L67.8083 21.029L67.7732 21.0903L67.7382 21.2304L67.6944 21.4319L66.8186 20.9764L66.801 21.0553L66.8799 21.1954L66.8098 21.3968L66.8186 21.6508L66.7135 21.7209L66.6697 21.9048L66.5908 21.9749L66.4682 22.1326L66.3894 22.2026L66.3018 22.4216L66.0916 22.3252L65.8902 23.0697L65.7763 23.2099L65.5311 23.1661L65.4172 22.9996L65.2157 22.9383L65.207 23.35L65.0844 23.4989L65.1194 23.6303L64.9355 23.8229L64.9705 23.9894L64.6464 24.5411L64.5589 24.8302L64.6902 24.9353L64.5589 25.1017L64.5676 25.2243L64.3662 25.3995L64.3049 25.3031L63.9283 25.5746L63.7969 25.4871L63.7443 25.6097L63.8144 25.6535L63.7706 25.7323L63.2889 25.9425L63.0261 25.7848L62.9561 25.9337L62.7897 26.0914L62.5882 26.1002L62.2028 25.8987L62.1941 25.7673L62.0627 25.706L62.1328 25.6009L62.0715 25.5484L61.6423 26.1264L61.3883 26.214L61.1255 26.4768L61.0905 26.6695L60.9066 26.7833L60.8978 26.9322L60.7752 27.0548L60.6175 27.0986L60.5738 27.265L60.4862 27.3001L59.8818 27.6679L62.413 27.3789L62.4306 27.2913L62.8334 27.2475L62.8072 27.3088L65.3822 27.0023L68.833 26.3629L71.3817 25.8286L71.3292 25.7235L71.3642 25.7148L71.443 25.7936L71.4343 25.671L71.408 25.5046L71.5481 25.6097L71.627 25.7936V25.6797L71.3292 25.198V25.0929L71.2679 25.0229L71.154 25.0842L71.1978 25.2068H71.1277L71.0927 25.1192L71.0401 25.198L70.9613 25.1017L70.7774 25.0929L70.7599 25.1542L70.8913 25.3382L70.7686 25.2769L70.7248 25.1893L70.6898 25.2593L70.6197 25.2681L70.4884 25.417L70.5146 25.2769V25.1542L70.3833 25.0929L70.2256 25.0491L70.2081 24.9002L70.1555 24.7864L70.103 24.8827L69.9541 24.7951L69.7789 24.8214L69.7964 24.7426L69.9278 24.7251L70.0066 24.7689L70.1555 24.6988L70.2344 24.7338L70.2782 24.8214V24.8827L70.4446 24.9178L70.4708 24.9966L70.5497 25.0316L70.6285 25.1367L70.7511 24.9966H70.8037L70.7949 24.8127L70.681 24.9002L70.6285 24.8214L70.7599 24.8039L70.6548 24.7251L70.5497 24.7776L70.5409 24.6287L70.392 24.6462L70.1993 24.5499L70.0417 24.3572L70.357 24.5499L70.4358 24.5762L70.5847 24.5061L70.4358 24.4273L70.4884 24.3747L70.4008 24.3309L70.4708 24.3134L70.4446 24.2346L70.5409 24.3134L70.5759 24.2434L70.611 24.3572L70.7161 24.4273L70.7686 24.3835L70.7248 24.3309L70.7161 24.112L70.6197 24.1032L70.4796 24.0332L70.5584 23.9368L70.3833 23.928L70.3482 23.8843L70.2256 23.9368L70.103 23.8667L70.0592 23.7616L69.8753 23.6565L69.6913 23.4989L69.4987 23.3325L69.7614 23.4463L69.8402 23.5514L70.0242 23.6127L70.2256 23.8317L70.2431 23.6828L70.2957 23.7967L70.4971 23.8405V23.4901L70.427 23.3938L70.5234 23.4288L70.5322 23.2887L70.2606 23.1661L70.1205 23.1485L70.0066 23.131L70.0329 23.0259L69.9015 22.9996L69.8928 22.9471H69.7351L69.7176 23.0172L69.6563 22.9296H69.4198L69.3322 22.8945L69.3147 22.807L69.2096 22.7544L69.1746 22.623L69.122 22.588L69.0607 22.6843L68.9819 22.7019L68.9031 22.7632H68.7717L68.6929 22.6493L68.7279 22.3778L68.7717 22.1676L68.8242 22.2114L68.8505 22.1764ZM70.7686 23.1923L70.8475 23.1836V23.131L70.7774 23.1398L70.7686 23.1923ZM71.4255 24.436L71.3379 24.6725L71.443 24.5587L71.4255 24.436ZM71.2679 23.096L71.3292 23.1223L71.3117 23.2887L71.2679 23.2449L71.154 23.3325L71.2416 23.3675L71.0839 23.7529L71.0927 24.4623L71.2591 24.7338L71.3029 24.6025L71.3379 24.366L71.3117 24.1645L71.373 24.0857L71.3555 23.9631L71.4606 23.9105L71.408 23.8667L71.4518 23.8054L71.5219 23.9018L71.5043 23.9981L71.4693 24.3397L71.5657 24.147L71.6007 23.8755L71.6094 23.6127L71.5832 23.4376L71.6357 23.2361L71.7321 23.0785L71.7408 22.8858L71.7671 22.807L71.3642 22.9471L71.3029 23.0172L71.2679 23.096Z" fill="#D0D0D0"/>
<path d="M12.9544 6.86665L13.0157 7.21699L12.9193 7.59361L10.2655 6.95424L10.0203 7.04182L9.54732 6.96299L9.38967 6.88417L9.25829 6.98927L8.96926 6.95424L8.57513 6.99803L8.49631 7.05934L8.12845 7.0243L8.05838 6.88417L7.95328 6.86665L7.56791 6.98051L7.42777 6.88417L7.23508 6.95424L7.21757 6.79658L7.01612 6.69148L6.88474 6.67396L6.79716 6.57762L6.5344 6.6039L6.4293 6.53383H6.3242L6.2191 6.61265L5.73738 6.67396L5.15932 6.30611L5.25567 5.81563L5.22063 5.45653L4.94036 5.13247L4.6163 5.14123L4.58126 5.04489L4.6163 4.93978L4.55499 4.86972L4.4674 4.87848L4.28347 4.7471L4.17837 4.78213L4.0032 4.77337L3.94189 4.642L3.80176 4.61572L4.02072 3.95883L3.95941 4.48434L4.0032 4.52814V4.35297L4.07327 4.33545L4.16961 4.53689L4.12582 4.34421L4.23092 3.97635L4.38858 4.01139L4.29223 3.83622L4.20465 3.86249L4.07327 3.82746L4.09079 3.4596L4.1083 3.59098L4.18713 3.63477L4.23968 3.49463H4.51995L4.32727 3.38953L4.17837 3.22312L4.05575 3.36326L4.16086 3.09174L4.13458 2.68885L4.11706 2.37355L4.19589 1.83928L4.1521 1.66411L4.02948 1.48018L4.03824 1.12984L4.07327 0.893365L4.24844 0.69192L4.18713 0.569301L4.20465 0.516751L4.28347 0.525509L4.96664 1.19115L5.37829 1.35756L5.82497 1.57653L6.10524 1.56777L6.12276 1.83052L6.21034 1.69039H6.27165L6.3242 1.92687L6.36799 1.69915L6.49061 1.68163L6.5344 1.74294L6.43806 1.79549L6.44682 1.93562L6.50813 1.80425H6.60447L6.56944 2.03197L6.4731 1.9619L6.50813 2.08452L6.49937 2.2159L6.4293 2.27721L6.21034 2.5312L6.31544 2.23341L6.17531 2.26845L6.14027 2.45238L5.80745 2.69761L5.77242 2.7852L5.58849 2.97788L5.57973 3.06547H5.77242L5.98262 3.04795L6.02641 2.96913L5.68483 3.01292V2.96037L5.91255 2.71513L6.07021 2.64506L6.23662 2.62754L6.3242 2.48741L6.58696 2.28596V2.16335H6.6833L6.69206 2.51368H6.56068L6.50813 2.58375L6.41179 2.50493L6.43806 2.60127V2.75016L6.37675 2.81147L6.35048 2.67134L6.28041 2.74141L6.34172 2.79396L6.26289 2.8903H6.37675L6.43806 2.84651L6.44682 3.02168L6.35924 3.18809L6.28041 3.27567L6.27165 3.43333L6.18407 3.41581L6.16655 3.29319L6.24538 3.19685L6.17531 3.15305L6.10524 3.21436L6.04393 3.40705L5.97386 3.48588L5.9651 3.31071L6.03517 3.21436L6.01765 3.11802L5.91255 3.22312L5.92131 3.41581L5.86876 3.45084L5.68483 3.41581L5.57097 3.52091L5.76366 3.46836L5.74614 3.66105L5.83373 3.50339L5.86876 3.62601L5.91255 3.53843L5.97386 3.69608H6.03517L6.09648 3.62601L6.14903 3.61725L6.3242 3.45084L6.34172 3.34574L6.41179 3.39829L6.43806 3.47712L6.49937 3.45084L6.50813 3.34574H6.62199L6.63951 3.09174L6.63075 2.85527L6.70957 2.88154L6.64827 2.69761L6.77088 2.62754L6.7884 2.41734L6.98985 2.22465L7.07743 2.23341L7.10371 2.11079L6.9986 1.98818L6.98985 1.68163L6.91978 1.76045L6.98109 2.01445L6.92854 2.02321L6.87599 1.8568L6.82343 1.81301L6.84971 1.61156L7.00736 1.6028L7.03364 1.66411L7.05991 1.52398L6.91978 1.37508L6.86723 1.23495L6.84971 1.41012L6.92854 1.50646L6.86723 1.54149L6.77964 1.47143L6.62199 1.58529L6.75337 1.62908L6.77088 1.83928L6.74461 1.99693L6.82343 1.88307L6.94605 2.08452L6.91102 2.25093H6.77964V2.14583L6.64827 2.04073L6.69206 1.77797L6.52565 1.55025L6.76213 1.2875L6.81468 0.928399H6.8935L7.01612 1.20867V0.98095L7.12122 1.00723V0.718196L7.0424 0.648128L6.93729 0.86709L6.84971 0.604335L6.96357 0.595577L6.83219 0.166411L6.9986 0.11386L9.22326 0.770747L11.9997 1.47143L14.0667 1.95314L12.9544 6.86665ZM6.06145 3.41581H6.10524L6.114 3.48588L6.07021 3.51215L6.07896 3.5647L6.01765 3.59974L6.00014 3.52091L6.04393 3.48588L6.06145 3.41581ZM6.49937 3.03919L6.39427 3.2056L6.38551 3.27567L6.42054 3.29319L6.46434 3.24064L6.56068 3.2494L6.49937 3.03919ZM6.46434 1.14736L6.50813 1.19991L6.62199 1.17364L6.63951 1.08605L6.74461 0.928399L6.65702 0.893365L6.59571 1.0335L6.58696 0.893365L6.49061 0.910882L6.4293 1.0335L6.46434 1.14736ZM6.74461 0.665645L6.80592 0.797022L6.72709 0.814539L6.65702 0.849573L6.63951 0.639369L6.74461 0.665645ZM6.50813 0.525509L6.41179 0.507992L6.45558 0.630611L6.50813 0.525509ZM6.42054 0.744471L6.49061 0.779505L6.45558 0.875848L6.60447 0.832056L6.58696 0.639369L6.50813 0.621852L6.42054 0.744471ZM6.18407 0.709437L6.21034 0.945916L6.35048 1.05978L6.40303 0.893365L6.30668 0.700679L6.18407 0.709437ZM6.35048 0.613094L6.25413 0.525509L6.17531 0.534268L6.33296 0.665645L6.35048 0.613094ZM6.63075 0H6.52565V0.0700679L6.63075 0.122619V0ZM6.55192 2.84651L6.58696 2.61003H6.49061L6.4731 2.77644L6.55192 2.84651Z" fill="#D0D0D0"/>
<path d="M62.1324 25.6012L62.0623 25.7063L62.1937 25.7676L62.2024 25.8989L62.5878 26.1004L62.7893 26.0916L62.9557 25.934L63.0257 25.7851L63.2885 25.9427L63.7702 25.7325L63.814 25.6537L63.7439 25.6099L63.7965 25.4873L63.9279 25.5749L64.3045 25.3034L64.3658 25.3997L64.5672 25.2245L64.5585 25.1019L64.6899 24.9355L64.5585 24.8304L64.6461 24.5414L64.9701 23.9896L64.9351 23.8232L65.119 23.6305L65.084 23.4991L65.2066 23.3502L65.2154 22.9386L65.4168 22.9999L65.5307 23.1663L65.7759 23.2101L65.8898 23.07L66.0912 22.3255L66.3014 22.4218L66.389 22.2029L66.4678 22.1328L66.5904 21.9751L66.6693 21.9051L66.7131 21.7211L66.8182 21.6511L66.8094 21.3971L66.8795 21.1956L66.8006 21.0555L66.8182 20.9767L67.694 21.4321L67.7378 21.2307L67.7728 21.0905L67.8079 21.0292L67.729 20.9942L67.7466 20.8541L67.659 20.8103L67.6415 20.749H67.5802L67.5101 20.6438L67.5276 20.5563L67.2999 20.5913L67.1072 20.4512L66.9846 20.4774L66.9058 20.6001H66.7919L66.643 20.8541L66.354 20.8891L66.1876 20.8015L65.9598 21.1343L65.7671 21.108L65.4956 21.4496L65.4168 21.5898L65.2592 21.7299L65.1103 20.7314L63.5863 20.9854L63.306 19.26L63.1133 19.3651L63.2359 19.549L63.2272 19.7417L63.2797 19.9169L63.1834 20.2147L63.1746 20.6876L63.087 21.0029L63.1308 21.0993L63.0958 21.292L62.9995 21.3358L62.8243 21.6248L62.6666 21.8H62.6141L62.4564 21.9489L62.3426 21.8438L62.2112 22.0014L62.1849 22.1065H62.0711L61.9572 22.2992L61.966 22.4831L61.8784 22.5269L62.001 22.6233V22.7897L61.9134 22.8072L61.8521 22.8773L61.7645 22.9211L61.712 22.7371L61.5718 22.6933L61.4842 22.8948L61.458 23.0875L61.3616 23.2013L61.4755 23.5166L61.3441 23.5867L61.3091 23.8932H61.1777L60.8974 24.0159L60.8887 24.1122L60.9412 24.1998L60.8887 24.5151L61.0551 24.6552L61.1252 24.7516L61.2127 24.8041L61.204 24.883L61.5894 25.3734H61.712L61.8433 25.5311L61.9484 25.5574L62.0711 25.5486L62.1324 25.6012Z" fill="#D0D0D0"/>
<path d="M52.2883 12.1569L52.0343 12.227L52.0518 12.4284L51.8416 12.7262L51.8241 12.9977L51.8766 13.059L51.9467 12.9977L51.9905 12.8576L52.1657 12.7612L52.3058 12.3934L52.6123 12.297L52.6824 12.008L52.7437 11.9292L52.7788 11.7452L52.9364 11.6489V11.5175L53.024 11.4387L53.1466 11.4475V11.6226L53.059 11.6314L53.1028 11.7365L53.0415 11.9292L52.989 11.9379L52.8839 12.3321L52.8225 12.3759L52.5773 13.0065L52.551 13.3743L52.6036 13.5495L52.6123 13.6634L52.4021 13.8298L52.4284 13.9962L52.3496 14.2677L52.3759 14.4078L52.4109 14.7319L52.3146 15.091L52.1832 15.5289L52.2708 15.6603L52.2445 15.6866L52.3146 15.8355L52.2708 15.9318L52.3671 16.0106V16.2471L52.481 16.3785L52.4459 16.6412L52.4722 16.9916L48.4521 17.2368L48.3382 16.9916L48.0492 16.9303L47.8127 16.7989L47.6375 16.3172L47.6463 16.0982L47.7864 15.8092L47.7339 15.7128L47.5499 15.5727L47.5324 15.345L47.4361 14.9509L47.4186 14.6881L47.2259 14.4253L46.9806 14.364L46.5252 14.0487L46.4726 13.7597L45.9209 13.4882L45.9033 13.3743H45.6143L45.4216 13.1466L45.2465 13.0327L45.3078 12.5861L45.2289 12.4459L45.2727 11.973L45.3603 11.8153L45.334 11.5788L45.2289 11.465L45.0713 11.4387V11.2898L45.3165 10.7818L45.8333 10.4402L45.7982 9.30163L45.8771 9.33666L45.9296 9.29287L45.9384 9.19653L46.0172 9.14398L46.1398 9.24908L46.2011 9.24032H46.4289L47.0244 9.0126L47.0507 8.92501H47.1558L47.2171 8.81991L47.2522 8.88998L47.4098 8.81115L47.5675 8.66226L47.5937 8.70605L47.6813 8.61847L47.874 8.7586L47.8039 8.89874L47.6988 9.02136L47.7426 9.15273L47.62 9.29287L47.655 9.3717L47.8565 9.27535V9.15273L48.1455 9.31915L48.3119 9.38046L48.4783 9.44177L48.7411 9.77459L50.23 10.1074L50.3527 10.195L50.703 10.2651L50.7643 10.3089L51.0095 10.2913L51.4387 10.3614L51.5613 10.4928L51.4737 10.5804L51.5438 10.6504L51.8766 10.7117L51.9817 10.8168L51.9905 11.2022L51.8766 11.4475L52.0518 11.4562L52.1394 11.3861L52.2182 11.4562L52.1219 11.7277L52.2095 11.8679L52.3146 11.8941L52.2883 12.1569ZM47.9528 8.88998L47.909 8.89874L47.7777 9.03888L47.7952 9.08267L47.9266 9.03012V8.97757L48.0054 8.95129L47.9528 8.88998ZM48.093 8.79364L48.0054 8.81991L47.9879 8.88122L48.0667 8.87246L48.093 8.79364ZM47.9791 8.6535L47.9616 8.73233H48.1105L48.163 8.69729L48.1718 8.60971L47.9791 8.6535ZM48.2243 8.39075L48.1981 8.55716L48.3032 8.51337L48.3119 8.39075H48.2243ZM53.3305 11.1847L53.1554 11.211L53.1203 11.3248L53.2342 11.4737L53.3305 11.1847Z" fill="#D0D0D0"/>
<path d="M29.8933 12.1304L25.4265 11.6662L20.4079 10.9743L20.2327 11.9115L19.4882 16.7111L19.1992 18.6292L22.0107 19.0496L25.9433 19.5489L29.2277 19.8466L29.5517 15.9754L29.8933 12.1304Z" fill="#D0D0D0"/>
<path d="M69.1483 21.616L68.9206 21.4583L68.833 21.6072L68.8768 21.6422L68.9118 21.651L68.9644 21.6948L68.9907 21.7561L68.9819 21.7999L68.9994 21.8437L69.1483 21.616Z" fill="#D0D0D0"/>
</mask>
<g mask="url(#mask0)">
<rect x="-4.83496" y="-1.66425" width="88.1979" height="62.9985" rx="6.51164" fill="white"/>
<mask id="mask1" style="mask-type:alpha" maskUnits="userSpaceOnUse" x="-5" y="-2" width="89" height="64">
<rect x="-4.83496" y="-1.66425" width="88.1979" height="62.9985" rx="6.51164" fill="white"/>
</mask>
<g mask="url(#mask1)">
<path fill-rule="evenodd" clip-rule="evenodd" d="M83.363 -1.66425H-4.8349V2.53566H83.363V-1.66425ZM83.363 6.73549H-4.83496V10.9354H83.363V6.73549ZM-4.83496 15.1355H83.363V19.3354H-4.83496V15.1355ZM83.363 23.5352H-4.83496V27.7351H83.363V23.5352ZM-4.83496 31.9348H83.363V36.1348H-4.83496V31.9348ZM83.363 40.335H-4.83496V44.5349H83.363V40.335ZM-4.83496 48.7345H83.363V52.9344H-4.83496V48.7345ZM83.363 57.1342H-4.83496V61.3341H83.363V57.1342Z" fill="#4CB87E"/>
<rect x="-4.83496" y="-1.66425" width="37.7991" height="29.3993" fill="#F3EA15"/>
<g filter="url(#filter0_d)">
<path fill-rule="evenodd" clip-rule="evenodd" d="M11.9653 4.63578C11.9653 5.79555 11.0252 6.73573 9.86538 6.73573C8.70561 6.73573 7.76543 5.79555 7.76543 4.63578C7.76543 3.47601 8.70561 2.53583 9.86538 2.53583C11.0252 2.53583 11.9653 3.47601 11.9653 4.63578ZM3.56559 4.63587C3.56559 5.79564 2.62541 6.73582 1.46563 6.73582C0.305864 6.73582 -0.634316 5.79564 -0.634316 4.63587C-0.634316 3.4761 0.305864 2.53592 1.46563 2.53592C2.62541 2.53592 3.56559 3.4761 3.56559 4.63587ZM18.2649 6.73573C19.4247 6.73573 20.3648 5.79555 20.3648 4.63578C20.3648 3.47601 19.4247 2.53583 18.2649 2.53583C17.1051 2.53583 16.1649 3.47601 16.1649 4.63578C16.1649 5.79555 17.1051 6.73573 18.2649 6.73573ZM28.7647 4.63578C28.7647 5.79555 27.8245 6.73573 26.6647 6.73573C25.5049 6.73573 24.5648 5.79555 24.5648 4.63578C24.5648 3.47601 25.5049 2.53583 26.6647 2.53583C27.8245 2.53583 28.7647 3.47601 28.7647 4.63578ZM5.66494 10.9357C6.82471 10.9357 7.76489 9.99547 7.76489 8.8357C7.76489 7.67593 6.82471 6.73575 5.66494 6.73575C4.50516 6.73575 3.56498 7.67593 3.56498 8.8357C3.56498 9.99547 4.50516 10.9357 5.66494 10.9357ZM16.1647 8.8357C16.1647 9.99547 15.2246 10.9357 14.0648 10.9357C12.905 10.9357 11.9648 9.99547 11.9648 8.8357C11.9648 7.67593 12.905 6.73575 14.0648 6.73575C15.2246 6.73575 16.1647 7.67593 16.1647 8.8357ZM22.4643 10.9357C23.624 10.9357 24.5642 9.99547 24.5642 8.8357C24.5642 7.67593 23.624 6.73575 22.4643 6.73575C21.3045 6.73575 20.3643 7.67593 20.3643 8.8357C20.3643 9.99547 21.3045 10.9357 22.4643 10.9357ZM28.7647 13.0354C28.7647 14.1952 27.8245 15.1354 26.6647 15.1354C25.5049 15.1354 24.5648 14.1952 24.5648 13.0354C24.5648 11.8757 25.5049 10.9355 26.6647 10.9355C27.8245 10.9355 28.7647 11.8757 28.7647 13.0354ZM18.2649 15.1354C19.4247 15.1354 20.3648 14.1952 20.3648 13.0354C20.3648 11.8757 19.4247 10.9355 18.2649 10.9355C17.1051 10.9355 16.1649 11.8757 16.1649 13.0354C16.1649 14.1952 17.1051 15.1354 18.2649 15.1354ZM11.9653 13.0354C11.9653 14.1952 11.0252 15.1354 9.86538 15.1354C8.70561 15.1354 7.76543 14.1952 7.76543 13.0354C7.76543 11.8757 8.70561 10.9355 9.86538 10.9355C11.0252 10.9355 11.9653 11.8757 11.9653 13.0354ZM1.46519 15.1354C2.62496 15.1354 3.56514 14.1952 3.56514 13.0354C3.56514 11.8757 2.62496 10.9355 1.46519 10.9355C0.305414 10.9355 -0.634766 11.8757 -0.634766 13.0354C-0.634766 14.1952 0.305414 15.1354 1.46519 15.1354ZM7.76489 17.2354C7.76489 18.3951 6.82471 19.3353 5.66494 19.3353C4.50516 19.3353 3.56498 18.3951 3.56498 17.2354C3.56498 16.0756 4.50516 15.1354 5.66494 15.1354C6.82471 15.1354 7.76489 16.0756 7.76489 17.2354ZM14.0648 19.3353C15.2246 19.3353 16.1647 18.3951 16.1647 17.2354C16.1647 16.0756 15.2246 15.1354 14.0648 15.1354C12.905 15.1354 11.9648 16.0756 11.9648 17.2354C11.9648 18.3951 12.905 19.3353 14.0648 19.3353ZM24.5642 17.2354C24.5642 18.3951 23.624 19.3353 22.4643 19.3353C21.3045 19.3353 20.3643 18.3951 20.3643 17.2354C20.3643 16.0756 21.3045 15.1354 22.4643 15.1354C23.624 15.1354 24.5642 16.0756 24.5642 17.2354ZM26.6647 23.5354C27.8245 23.5354 28.7647 22.5952 28.7647 21.4355C28.7647 20.2757 27.8245 19.3355 26.6647 19.3355C25.5049 19.3355 24.5648 20.2757 24.5648 21.4355C24.5648 22.5952 25.5049 23.5354 26.6647 23.5354ZM20.3648 21.4355C20.3648 22.5952 19.4247 23.5354 18.2649 23.5354C17.1051 23.5354 16.1649 22.5952 16.1649 21.4355C16.1649 20.2757 17.1051 19.3355 18.2649 19.3355C19.4247 19.3355 20.3648 20.2757 20.3648 21.4355ZM9.86538 23.5354C11.0252 23.5354 11.9653 22.5952 11.9653 21.4355C11.9653 20.2757 11.0252 19.3355 9.86538 19.3355C8.70561 19.3355 7.76543 20.2757 7.76543 21.4355C7.76543 22.5952 8.70561 23.5354 9.86538 23.5354ZM3.56514 21.4355C3.56514 22.5952 2.62496 23.5354 1.46519 23.5354C0.305414 23.5354 -0.634766 22.5952 -0.634766 21.4355C-0.634766 20.2757 0.305414 19.3355 1.46519 19.3355C2.62496 19.3355 3.56514 20.2757 3.56514 21.4355Z" fill="url(#paint0_linear)"/>
</g>
</g>
</g>
<path d="M95.88 16.5264C95.88 18.1264 95.72 20.2384 95.4 22.8624C95.1013 25.4864 94.952 27.513 94.952 28.9424C94.952 30.3717 95.336 31.5664 96.104 32.5264C96.872 33.465 98.0133 33.9344 99.528 33.9344C100.147 33.9344 100.893 33.785 101.768 33.4864C102.643 33.1877 103.336 32.8037 103.848 32.3344C104.125 29.9664 104.264 26.9264 104.264 23.2144C104.264 19.481 103.997 16.4517 103.464 14.1264C104.147 13.8704 104.872 13.7424 105.64 13.7424C106.408 13.7424 107.069 13.9877 107.624 14.4784C108.2 14.969 108.488 15.609 108.488 16.3984C108.488 17.1877 108.392 18.5424 108.2 20.4624C108.029 22.3824 107.944 24.537 107.944 26.9264C107.944 29.2944 108.051 31.385 108.264 33.1984C105.149 35.7584 101.992 37.0384 98.792 37.0384C96.36 37.0384 94.4613 36.4197 93.096 35.1824C91.752 33.9237 91.08 32.1104 91.08 29.7424C91.08 28.9957 91.144 27.6517 91.272 25.7104C91.4213 23.7477 91.496 22.3184 91.496 21.4224C91.496 18.201 91.2827 15.833 90.856 14.3184C91.5387 14.0624 92.264 13.9344 93.032 13.9344C93.8 13.9344 94.4613 14.1797 95.016 14.6704C95.592 15.161 95.88 15.7797 95.88 16.5264ZM122.282 20.8464C122.367 20.4197 122.41 19.9824 122.41 19.5344C122.41 17.465 121.397 16.4304 119.37 16.4304C118.453 16.4304 117.674 16.6224 117.034 17.0064C116.437 17.7104 116.138 18.553 116.138 19.5344C116.138 20.1744 116.415 20.729 116.97 21.1984C117.525 21.6464 118.207 21.9984 119.018 22.2544C119.85 22.5104 120.746 22.8304 121.706 23.2144C122.666 23.5984 123.551 24.0144 124.362 24.4624C125.194 24.889 125.887 25.5397 126.442 26.4144C126.997 27.2677 127.274 28.281 127.274 29.4544C127.274 31.6944 126.41 33.5184 124.682 34.9264C122.975 36.3344 120.917 37.0384 118.506 37.0384C116.565 37.0384 114.911 36.5584 113.546 35.5984C112.202 34.617 111.53 33.2517 111.53 31.5024C111.53 30.6064 111.797 29.8597 112.33 29.2624C112.885 28.6437 113.535 28.3344 114.282 28.3344C115.05 28.3344 115.615 28.4304 115.978 28.6224C115.807 29.2624 115.722 29.8384 115.722 30.3504C115.722 31.5024 116.042 32.4197 116.682 33.1024C117.343 33.7637 118.25 34.0944 119.402 34.0944C120.554 34.0944 121.482 33.7957 122.186 33.1984C122.89 32.601 123.242 31.8117 123.242 30.8304C123.242 29.8277 122.847 29.0064 122.058 28.3664C121.29 27.7264 120.351 27.2144 119.242 26.8304C118.133 26.4464 117.023 26.041 115.914 25.6144C114.805 25.1877 113.855 24.5584 113.066 23.7264C112.298 22.873 111.914 21.8064 111.914 20.5264C111.914 18.521 112.778 16.857 114.506 15.5344C116.255 14.2117 118.229 13.5504 120.426 13.5504C122.047 13.5504 123.445 13.881 124.618 14.5424C125.813 15.1824 126.41 16.1637 126.41 17.4864C126.41 18.4464 126.101 19.2677 125.482 19.9504C124.863 20.6117 124.085 20.9424 123.146 20.9424C122.89 20.9424 122.602 20.9104 122.282 20.8464ZM139.042 20.7504C139.725 20.5584 140.407 20.4624 141.09 20.4624C141.794 20.4624 142.391 20.6757 142.882 21.1024C143.373 21.529 143.618 22.0837 143.618 22.7664C143.618 23.4277 143.501 24.5904 143.266 26.2544C143.053 27.897 142.946 29.177 142.946 30.0944C142.946 32.4837 143.17 34.5424 143.618 36.2704C142.957 36.5264 142.242 36.6544 141.474 36.6544C140.706 36.6544 140.098 36.4837 139.65 36.1424C139.202 35.7797 138.978 35.2677 138.978 34.6064C138.978 33.9237 139.106 32.8144 139.362 31.2784C139.618 29.7424 139.746 28.473 139.746 27.4704C139.746 24.8037 139.511 22.5637 139.042 20.7504ZM139.458 13.5184C140.205 13.177 140.941 13.0064 141.666 13.0064C142.391 13.0064 142.925 13.1984 143.266 13.5824C143.629 13.945 143.81 14.489 143.81 15.2144C143.81 15.9397 143.565 16.5797 143.074 17.1344C142.605 17.689 141.986 17.9664 141.218 17.9664C139.639 17.9664 138.85 17.145 138.85 15.5024C138.85 14.777 139.053 14.1157 139.458 13.5184ZM171.518 23.7264L171.198 30.5744C171.198 32.6437 171.497 34.6064 172.094 36.4624C171.497 36.7184 170.814 36.8464 170.046 36.8464C168.233 36.8464 167.326 35.833 167.326 33.8064C167.326 32.889 167.444 31.353 167.678 29.1984C167.913 27.0224 168.03 25.657 168.03 25.1024C168.03 24.0357 167.593 23.5024 166.718 23.5024C165.758 23.5024 164.606 24.4837 163.262 26.4464C161.94 28.409 161.278 29.945 161.278 31.0544C161.385 32.7397 161.684 34.4144 162.174 36.0784C161.364 36.3344 160.681 36.4624 160.126 36.4624C158.313 36.4624 157.406 35.449 157.406 33.4224C157.406 32.569 157.524 31.1397 157.758 29.1344C157.993 27.129 158.11 25.8704 158.11 25.3584C158.11 24.2917 157.63 23.7584 156.67 23.7584C156.009 23.7584 155.252 24.249 154.398 25.2304C153.545 26.2117 152.82 27.2997 152.222 28.4944C151.646 29.6677 151.337 30.6064 151.294 31.3104C151.401 33.145 151.614 34.7984 151.934 36.2704C151.252 36.5264 150.537 36.6544 149.79 36.6544C149.065 36.6544 148.468 36.4837 147.998 36.1424C147.55 35.7797 147.326 35.289 147.326 34.6704C147.326 34.0304 147.422 32.8997 147.614 31.2784C147.806 29.6357 147.902 28.0144 147.902 26.4144C147.902 24.793 147.657 22.937 147.166 20.8464C147.849 20.5904 148.574 20.4624 149.342 20.4624C150.11 20.4624 150.729 20.6864 151.198 21.1344C151.689 21.5824 151.934 22.1797 151.934 22.9264C151.934 23.3104 151.86 24.249 151.71 25.7424C152.5 24.3344 153.502 23.1184 154.718 22.0944C155.934 21.049 157.15 20.5264 158.366 20.5264C160.521 20.5264 161.598 21.6784 161.598 23.9824C161.598 24.5584 161.566 25.1984 161.502 25.9024C162.292 24.409 163.305 23.097 164.542 21.9664C165.801 20.8357 167.049 20.2704 168.286 20.2704C170.441 20.2704 171.518 21.4224 171.518 23.7264ZM179.48 33.5184C180.354 33.8384 181.368 33.9984 182.52 33.9984C183.672 33.9984 184.685 33.7744 185.56 33.3264C186.605 31.5344 187.128 29.3904 187.128 26.8944C187.128 24.377 186.69 23.1184 185.816 23.1184C184.728 23.1184 183.501 24.217 182.135 26.4144C180.792 28.6117 179.906 30.9797 179.48 33.5184ZM179.48 26.9584C181.741 22.4997 184.248 20.2704 187 20.2704C188.45 20.2704 189.485 20.8677 190.104 22.0624C190.744 23.2357 191.064 24.729 191.064 26.5424C191.064 29.145 190.296 31.513 188.76 33.6464C187.224 35.7797 185.293 36.8464 182.968 36.8464C181.645 36.8464 180.44 36.633 179.352 36.2064C179.394 39.129 179.576 41.8064 179.896 44.2384C179.213 44.4944 178.509 44.6224 177.784 44.6224C177.058 44.6224 176.461 44.377 175.992 43.8864C175.522 43.417 175.288 42.6917 175.288 41.7104C175.288 40.729 175.416 39.0544 175.672 36.6864C175.928 34.3184 176.056 32.4624 176.056 31.1184C176.056 26.681 175.821 23.257 175.352 20.8464C176.034 20.5904 176.749 20.4624 177.496 20.4624C178.264 20.4624 178.85 20.6864 179.256 21.1344C179.682 21.561 179.896 22.2437 179.896 23.1824C179.896 24.0997 179.757 25.3584 179.48 26.9584ZM199.519 37.0384C197.173 37.0384 195.445 36.3557 194.335 34.9904C193.226 33.6037 192.671 31.6837 192.671 29.2304C192.671 26.7557 193.407 24.6117 194.879 22.7984C196.351 20.985 198.239 20.0784 200.543 20.0784C205.279 20.0784 207.647 22.745 207.647 28.0784C207.647 30.5744 206.879 32.697 205.343 34.4464C203.807 36.1744 201.866 37.0384 199.519 37.0384ZM197.215 23.5984C196.831 24.8357 196.639 26.073 196.639 27.3104C196.639 28.5477 196.682 29.5077 196.767 30.1904C196.853 30.873 197.013 31.5557 197.247 32.2384C197.738 33.625 198.698 34.3184 200.127 34.3184C201.578 34.3184 202.527 33.9344 202.975 33.1664C203.445 32.3984 203.679 31.2144 203.679 29.6144C203.679 25.0704 202.602 22.7984 200.447 22.7984C199.21 22.7984 198.133 23.065 197.215 23.5984ZM214.868 36.2704C214.207 36.5264 213.503 36.6544 212.756 36.6544C212.009 36.6544 211.401 36.4837 210.932 36.1424C210.484 35.7797 210.26 35.289 210.26 34.6704C210.26 34.0304 210.356 32.8784 210.548 31.2144C210.74 29.5504 210.836 27.9397 210.836 26.3824C210.836 24.8037 210.591 22.9584 210.1 20.8464C210.783 20.5904 211.455 20.4624 212.116 20.4624C212.777 20.4624 213.343 20.6864 213.812 21.1344C214.303 21.5824 214.548 22.1797 214.548 22.9264C214.548 23.3104 214.484 23.8864 214.356 24.6544C214.228 25.401 214.153 25.9664 214.132 26.3504C214.964 24.4517 215.945 22.969 217.076 21.9024C218.228 20.8144 219.369 20.2704 220.5 20.2704C221.289 20.2704 221.919 20.5477 222.388 21.1024C222.857 21.657 223.092 22.361 223.092 23.2144C223.092 24.0464 222.879 24.729 222.452 25.2624C222.025 25.7744 221.492 26.0304 220.852 26.0304C220.233 26.0304 219.732 25.9664 219.348 25.8384C219.412 25.5824 219.444 25.3477 219.444 25.1344C219.444 24.2597 219.135 23.8224 218.516 23.8224C217.577 23.8224 216.692 24.7717 215.86 26.6704C215.049 28.5477 214.505 30.3077 214.228 31.9504C214.335 33.5504 214.548 34.9904 214.868 36.2704ZM226.037 15.7584C226.72 15.417 227.413 15.2464 228.117 15.2464C228.821 15.2464 229.386 15.4704 229.813 15.9184C230.261 16.3664 230.485 17.0277 230.485 17.9024C230.485 18.777 230.432 19.769 230.325 20.8784C231.925 20.8784 233.45 20.6544 234.901 20.2064C235.157 20.633 235.285 21.1344 235.285 21.7104C235.285 22.265 235.029 22.7237 234.517 23.0864C234.026 23.4277 233.525 23.5984 233.013 23.5984C232.501 23.5984 231.925 23.5344 231.285 23.4064C230.645 23.2784 230.229 23.2037 230.037 23.1824C230.016 23.3744 229.952 23.7584 229.845 24.3344C229.76 24.9104 229.685 25.4117 229.621 25.8384C229.45 27.0117 229.365 28.2704 229.365 29.6144C229.365 32.537 230.314 33.9984 232.213 33.9984C232.917 33.9984 233.728 33.753 234.645 33.2624C234.922 33.6677 235.061 34.1904 235.061 34.8304C235.061 35.4704 234.709 35.9717 234.005 36.3344C233.322 36.6757 232.501 36.8464 231.541 36.8464C227.786 36.8464 225.909 34.713 225.909 30.4464C225.909 29.8277 225.994 28.7077 226.165 27.0864C226.357 25.465 226.453 24.153 226.453 23.1504C225.429 23.2144 224.608 23.3957 223.989 23.6944C223.733 23.3104 223.605 22.873 223.605 22.3824C223.605 21.8704 223.786 21.4544 224.149 21.1344C224.512 20.793 224.96 20.6224 225.493 20.6224C226.026 20.6224 226.378 20.633 226.549 20.6544C226.57 20.4837 226.581 20.2597 226.581 19.9824C226.581 18.3824 226.4 16.9744 226.037 15.7584ZM240.262 30.8304C240.198 31.129 240.166 31.3744 240.166 31.5664C240.166 32.441 240.422 33.113 240.934 33.5824C241.467 34.0517 242.171 34.2864 243.046 34.2864C243.942 34.2864 244.678 34.1264 245.254 33.8064C245.851 33.465 246.15 32.9637 246.15 32.3024C246.15 31.641 245.83 31.1184 245.19 30.7344C244.571 30.329 243.814 30.009 242.918 29.7744C242.043 29.5397 241.158 29.2837 240.262 29.0064C239.366 28.7077 238.598 28.249 237.958 27.6304C237.339 27.0117 237.03 26.233 237.03 25.2944C237.03 23.8224 237.809 22.585 239.366 21.5824C240.923 20.5797 242.555 20.0784 244.262 20.0784C246.139 20.0784 247.569 20.4624 248.55 21.2304C249.126 21.6784 249.414 22.2757 249.414 23.0224C249.414 23.7477 249.126 24.345 248.55 24.8144C247.995 25.2624 247.313 25.4864 246.502 25.4864C246.331 25.4864 246.118 25.465 245.862 25.4224C245.926 25.145 245.958 24.8997 245.958 24.6864C245.958 24.0677 245.723 23.5984 245.254 23.2784C244.785 22.9584 244.145 22.7984 243.334 22.7984C242.545 22.7984 241.819 22.9584 241.158 23.2784C240.902 23.6197 240.774 24.057 240.774 24.5904C240.774 25.1237 241.083 25.561 241.702 25.9024C242.321 26.2224 243.067 26.5104 243.942 26.7664C244.838 27.001 245.734 27.2784 246.63 27.5984C247.526 27.897 248.283 28.377 248.902 29.0384C249.521 29.6784 249.83 30.489 249.83 31.4704C249.83 33.0704 249.03 34.4037 247.43 35.4704C245.851 36.5157 244.219 37.0384 242.534 37.0384C240.849 37.0384 239.451 36.7397 238.342 36.1424C237.254 35.5237 236.71 34.5957 236.71 33.3584C236.71 32.5904 236.987 31.9717 237.542 31.5024C238.118 31.0117 238.811 30.7664 239.622 30.7664C239.793 30.7664 240.006 30.7877 240.262 30.8304Z" fill="#4CB87E"/>
<defs>
<filter id="filter0_d" x="-0.634766" y="2.53583" width="29.3994" height="24.2554" filterUnits="userSpaceOnUse" color-interpolation-filters="sRGB">
<feFlood flood-opacity="0" result="BackgroundImageFix"/>
<feColorMatrix in="SourceAlpha" type="matrix" values="0 0 0 0 0 0 0 0 0 0 0 0 0 0 0 0 0 0 127 0" result="hardAlpha"/>
<feOffset dy="3.25582"/>
<feColorMatrix type="matrix" values="0 0 0 0 0 0 0 0 0 0 0 0 0 0 0 0 0 0 0.06 0"/>
<feBlend mode="normal" in2="BackgroundImageFix" result="effect1_dropShadow"/>
<feBlend mode="normal" in="SourceGraphic" in2="effect1_dropShadow" result="shape"/>
</filter>
<linearGradient id="paint0_linear" x1="-0.634766" y1="2.53583" x2="-0.634766" y2="23.5354" gradientUnits="userSpaceOnUse">
<stop stop-color="white"/>
<stop offset="1" stop-color="#F0F0F0"/>
</linearGradient>
</defs>
</svg>
