<svg width="64" height="64" viewBox="0 0 64 64" fill="none" xmlns="http://www.w3.org/2000/svg">
<path d="M31.9997 58.6667C17.2717 58.6667 5.33301 46.728 5.33301 32C5.33301 17.272 17.2717 5.33334 31.9997 5.33334C46.7277 5.33334 58.6663 17.272 58.6663 32C58.6663 46.728 46.7277 58.6667 31.9997 58.6667ZM31.9997 53.3333C37.6576 53.3333 43.0838 51.0857 47.0846 47.085C51.0854 43.0842 53.333 37.658 53.333 32C53.333 26.3421 51.0854 20.9158 47.0846 16.9151C43.0838 12.9143 37.6576 10.6667 31.9997 10.6667C26.3417 10.6667 20.9155 12.9143 16.9147 16.9151C12.914 20.9158 10.6663 26.3421 10.6663 32C10.6663 37.658 12.914 43.0842 16.9147 47.085C20.9155 51.0857 26.3417 53.3333 31.9997 53.3333V53.3333ZM22.6663 37.3333H37.333C37.6866 37.3333 38.0258 37.1929 38.2758 36.9428C38.5259 36.6928 38.6663 36.3536 38.6663 36C38.6663 35.6464 38.5259 35.3072 38.2758 35.0572C38.0258 34.8071 37.6866 34.6667 37.333 34.6667H26.6663C24.8982 34.6667 23.2025 33.9643 21.9523 32.7141C20.7021 31.4638 19.9997 29.7681 19.9997 28C19.9997 26.2319 20.7021 24.5362 21.9523 23.286C23.2025 22.0357 24.8982 21.3333 26.6663 21.3333H29.333V16H34.6663V21.3333H41.333V26.6667H26.6663C26.3127 26.6667 25.9736 26.8072 25.7235 27.0572C25.4735 27.3072 25.333 27.6464 25.333 28C25.333 28.3536 25.4735 28.6928 25.7235 28.9428C25.9736 29.1929 26.3127 29.3333 26.6663 29.3333H37.333C39.1011 29.3333 40.7968 30.0357 42.0471 31.286C43.2973 32.5362 43.9997 34.2319 43.9997 36C43.9997 37.7681 43.2973 39.4638 42.0471 40.7141C40.7968 41.9643 39.1011 42.6667 37.333 42.6667H34.6663V48H29.333V42.6667H22.6663V37.3333Z" fill="#64C490"/>
</svg>
