<svg width="542" height="312" viewBox="0 0 542 312" fill="none" xmlns="http://www.w3.org/2000/svg">
<path opacity="0.3" d="M255.5 311C393.295 311 505 304.732 505 297C505 289.268 393.295 283 255.5 283C117.705 283 6 289.268 6 297C6 304.732 117.705 311 255.5 311Z" fill="#E6E6E6"/>
<path d="M268.843 136.623C268.843 136.623 278.019 128.601 282.639 135.018C287.259 141.435 281.147 145.639 273.126 146.072C265.105 146.505 268.843 136.623 268.843 136.623Z" fill="#F4A28C"/>
<path opacity="0.08" d="M268.843 136.623C268.843 136.623 278.019 128.601 282.639 135.018C287.259 141.435 281.147 145.639 273.126 146.072C265.105 146.505 268.843 136.623 268.843 136.623Z" fill="black"/>
<path d="M182.598 101.746C182.598 101.746 191.485 139.382 215.966 140.521C240.447 141.66 267.848 129.403 267.848 129.403L272.661 144.483L205.587 162.708C205.587 162.708 162.994 140.794 162.448 138.227C161.903 135.66 182.598 101.746 182.598 101.746Z" fill="#64C490"/>
<path opacity="0.08" d="M182.598 101.746C182.598 101.746 191.485 139.382 215.966 140.521C240.447 141.66 267.848 129.403 267.848 129.403L272.661 144.483L205.587 162.708C205.587 162.708 162.994 140.794 162.448 138.227C161.903 135.66 182.598 101.746 182.598 101.746Z" fill="black"/>
<path d="M447.494 194.312H382.056V231.707H447.494V194.312Z" fill="#C1C1C1"/>
<path d="M400.536 162.628H323.66V231.707H400.536V162.628Z" fill="#FFD200"/>
<path d="M282.64 144.451H299.581C302.151 144.449 304.636 145.37 306.585 147.045C308.534 148.72 309.817 151.039 310.201 153.58L322.121 231.707H446.018C449.051 231.706 451.996 230.685 454.379 228.808C456.762 226.931 458.444 224.308 459.157 221.36L477.67 145.061" stroke="#24285B" stroke-width="3.20853" stroke-linecap="round" stroke-linejoin="round"/>
<path d="M178.458 282.402C178.458 282.402 183.463 286.413 188.356 284.006C193.249 281.6 197.26 285.354 193.795 289.108C190.33 292.862 176.244 294.081 176.244 294.081L170.806 285.578L178.458 282.402Z" fill="#64C490"/>
<path d="M49.764 254.231C49.764 254.231 43.3469 255.05 41.7427 260.279C40.1384 265.509 34.5877 265.75 34.2989 260.664C34.0101 255.579 42.8817 244.622 42.8817 244.622L52.7961 246.595L49.764 254.231Z" fill="#64C490"/>
<path d="M153.239 15.6612L142.298 41.7144L157.522 50.2651L159.784 26.891L153.239 15.6612Z" fill="#F4A28C"/>
<path opacity="0.31" d="M159.576 32.0405C157.608 30.9947 155.99 29.3937 154.924 27.4362C154.924 27.4362 153.785 33.0993 158.581 40.1259L159.576 32.0405Z" fill="#CE8172"/>
<path d="M167.004 14.4097C167.004 14.4097 168.608 23.8749 167.549 30.3561C167.452 30.9888 167.229 31.5958 166.895 32.1415C166.56 32.6872 166.12 33.1606 165.6 33.5341C165.08 33.9076 164.491 34.1736 163.867 34.3166C163.243 34.4595 162.597 34.4766 161.966 34.3668C159.928 34.1407 157.998 33.332 156.408 32.0374C154.817 30.7428 153.633 29.0173 152.998 27.0674L149.437 18.9338C148.894 17.2333 148.892 15.4062 149.432 13.7048C149.973 12.0035 151.028 10.512 152.453 9.43652C157.538 5.05688 166.298 8.58626 167.004 14.4097Z" fill="#F4A28C"/>
<path d="M164.661 15.0033C161.708 15.3397 158.727 15.3397 155.774 15.0033C156.736 16.233 157.318 17.7169 157.449 19.2728C157.58 20.8288 157.255 22.3891 156.512 23.7626C155.806 25.098 154.66 26.1476 153.267 26.7327C151.875 27.3177 150.323 27.402 148.875 26.9711L148.009 14.6664C147.822 12.9079 148.115 11.1315 148.858 9.52672C149.601 7.92195 150.766 6.54895 152.228 5.55416C153.48 4.67995 154.794 3.89718 156.159 3.21194C159.592 1.49537 164.966 3.42049 167.95 0.773455C168.249 0.50706 168.613 0.323103 169.005 0.239663C169.397 0.156223 169.804 0.176168 170.185 0.297532C170.567 0.418895 170.911 0.637508 171.183 0.931896C171.455 1.22628 171.645 1.58633 171.736 1.97665C172.602 5.66646 172.41 11.6022 167.533 14.0728C166.638 14.5505 165.666 14.8655 164.661 15.0033V15.0033Z" fill="#24285B"/>
<path d="M157.507 23.4578C157.507 23.4578 157.138 19.768 154.379 20.2493C151.619 20.7306 152.149 26.0888 155.983 26.2814L157.507 23.4578Z" fill="#F4A28C"/>
<path d="M167.71 20.4256L170.694 23.8908C170.847 24.0938 170.949 24.3303 170.993 24.5807C171.037 24.8311 171.02 25.0884 170.945 25.3313C170.87 25.5741 170.738 25.7956 170.561 25.9775C170.383 26.1594 170.165 26.2965 169.924 26.3774L166.33 27.3721L167.71 20.4256Z" fill="#F4A28C"/>
<path d="M166.988 53.7943C166.073 53.1045 165.191 52.3825 164.325 51.6285C159.111 47.0724 140.261 32.4736 121.106 40.3987C98.5178 49.8318 108.689 62.2006 128.116 63.8049C183.335 68.4412 171.448 57.083 166.988 53.7943Z" fill="#64C490"/>
<path opacity="0.44" d="M166.988 53.7943C166.073 53.1045 165.191 52.3825 164.325 51.6285C159.111 47.0724 140.261 32.4736 121.106 40.3987C98.5178 49.8318 108.689 62.2006 128.116 63.8049C183.335 68.4412 171.448 57.083 166.988 53.7943Z" fill="white"/>
<path d="M157.651 52.559C136.795 44.6981 113.245 53.0403 100.795 71.5695C94.8437 80.425 89.5657 91.3501 88.3143 103.302C85.2021 133.526 80.9668 160.157 80.9668 160.157L139.763 185.825C139.763 185.825 188.613 151.67 186.543 111.147C185.019 82.4945 179.902 60.9172 157.651 52.559Z" fill="#64C490"/>
<path opacity="0.08" d="M132.48 69.1311C132.48 69.1311 110.133 94.0614 119.999 138.211C129.865 182.36 104.085 170.296 104.085 170.296L139.716 185.889C139.716 185.889 157.475 171.563 161.919 165.932L166.362 160.301L132.48 69.1311Z" fill="black"/>
<path d="M154.41 59.6498C154.41 59.6498 173.661 64.3183 175.971 88.5266C178.281 112.735 188.452 151.975 217.329 146.136C246.206 140.296 270.27 136.398 270.27 136.398L274.938 151.975C274.938 151.975 194.019 199.108 154.426 159.772C114.833 120.435 119.983 51.8531 154.41 59.6498Z" fill="#64C490"/>
<path opacity="0.44" d="M154.41 59.6498C154.41 59.6498 173.661 64.3183 175.971 88.5266C178.281 112.735 188.452 151.975 217.329 146.136C246.206 140.296 270.27 136.398 270.27 136.398L274.938 151.975C274.938 151.975 194.019 199.108 154.426 159.772C114.833 120.435 119.983 51.8531 154.41 59.6498Z" fill="white"/>
<path d="M80.9676 160.157C80.9676 160.157 71.2297 178.462 80.9676 185.825C90.7055 193.189 156.593 248.937 169.202 286.332L182.614 280.878C182.614 280.878 171.272 227.504 139.732 185.825L80.9676 160.157Z" fill="#24285B"/>
<path d="M80.967 185.873C80.967 185.873 131.213 255.595 49.4111 241.188V255.627C49.4111 255.627 131.951 277.846 129.624 226.75C127.298 175.654 80.967 185.873 80.967 185.873Z" fill="#24285B"/>
<path d="M271.73 141.355C271.73 141.355 284.147 134.12 287.26 141.355C290.372 148.59 274.923 151.975 274.923 151.975L271.73 141.355Z" fill="#F4A28C"/>
<path d="M400.537 129.371H359.066V162.612H400.537V129.371Z" fill="#E6E6E6"/>
<path opacity="0.43" d="M447.494 147.563H399.045V194.312H447.494V147.563Z" fill="#E6E6E6"/>
<path d="M319.874 217.044L326.291 256.83C326.939 260.827 328.987 264.463 332.071 267.088C335.154 269.713 339.071 271.155 343.12 271.156H453.269" stroke="#24285B" stroke-width="3.20853" stroke-linecap="round" stroke-linejoin="round"/>
<path d="M348.783 294.611C353.833 294.611 357.927 290.517 357.927 285.466C357.927 280.416 353.833 276.322 348.783 276.322C343.733 276.322 339.639 280.416 339.639 285.466C339.639 290.517 343.733 294.611 348.783 294.611Z" fill="#64C490"/>
<path d="M438.349 294.611C443.4 294.611 447.494 290.517 447.494 285.466C447.494 280.416 443.4 276.322 438.349 276.322C433.299 276.322 429.205 280.416 429.205 285.466C429.205 290.517 433.299 294.611 438.349 294.611Z" fill="#64C490"/>
<path opacity="0.61" d="M368.756 162.628H353.596V185.055H368.756V162.628Z" fill="white"/>
</svg>
